<svg width="84" height="74" fill="none" xmlns="http://www.w3.org/2000/svg"><path d="M69.399 16.49C59.413 13.9 49.368 9.869 40.35 4.83a1.336 1.336 0 0 0-1.302 0C29.772 10.013 20.27 13.827 10 16.49c-.589.152-1 .684-1 1.292v14.735c0 15.154 7.38 25.178 13.571 30.919C29.213 69.594 36.915 73 39.7 73c2.785 0 10.487-3.406 17.128-9.564C63.02 57.696 70.4 47.67 70.4 32.516V17.783c0-.608-.411-1.14-1-1.292zM55.012 61.478c-3.678 3.41-7.252 5.564-9.603 6.77-2.98 1.527-5.047 2.082-5.71 2.082-.663 0-2.73-.554-5.71-2.082-2.35-1.206-5.924-3.36-9.603-6.77-5.801-5.38-12.717-14.77-12.717-28.962V18.81A123.537 123.537 0 0 0 39.7 7.522 127.414 127.414 0 0 0 67.73 18.81v13.706c0 14.191-6.915 23.583-12.717 28.962z" fill="#000"/><path d="M64.765 20.06a128.718 128.718 0 0 1-24.438-9.923 1.334 1.334 0 0 0-1.254.001 127.19 127.19 0 0 1-24.438 9.924c-.57.165-.964.688-.964 1.282v11.172c0 5.216.989 10.166 2.938 14.712 1.94 4.524 4.832 8.652 8.597 12.27 2.693 2.589 5.802 4.87 8.992 6.596.571.31 3.51 1.87 5.259 2.192a1.342 1.342 0 0 0 .484 0c1.748-.323 4.688-1.882 5.26-2.192 3.189-1.726 6.298-4.007 8.991-6.595 3.765-3.619 6.658-7.747 8.597-12.27 1.95-4.547 2.938-9.497 2.938-14.713V21.341c0-.593-.392-1.116-.962-1.282zm-1.708 12.456c0 9.794-3.605 18.225-10.714 25.058-2.523 2.424-5.432 4.559-8.413 6.172-1.357.735-3.19 1.591-4.23 1.86-1.043-.269-2.875-1.125-4.232-1.86-2.981-1.614-5.89-3.748-8.412-6.172-7.11-6.833-10.715-15.264-10.715-25.058V22.344a129.887 129.887 0 0 0 23.36-9.518 131.439 131.439 0 0 0 23.356 9.513v10.177z" fill="#000"/><path d="M28.624 52.486l-.026-.03a1.335 1.335 0 0 0-1.978 1.794l.027.028a1.331 1.331 0 0 0 1.878.092 1.335 1.335 0 0 0 .1-1.884zm7.2 6.058a34.779 34.779 0 0 1-4.602-3.476 1.335 1.335 0 1 0-1.779 1.99 37.457 37.457 0 0 0 4.956 3.744 1.334 1.334 0 0 0 1.424-2.258zM46.76 32.567v-4.394a7.069 7.069 0 0 0-7.061-7.06 7.069 7.069 0 0 0-7.06 7.06v4.394a2.974 2.974 0 0 0-2.863 2.968v10.247a2.974 2.974 0 0 0 2.97 2.97h13.906a2.974 2.974 0 0 0 2.97-2.97V35.535a2.974 2.974 0 0 0-2.862-2.968zm-11.452-4.394a4.396 4.396 0 0 1 4.391-4.39 4.396 4.396 0 0 1 4.391 4.39v4.392h-8.782v-4.392zm11.645 17.61a.305.305 0 0 1-.301.3H32.746a.305.305 0 0 1-.301-.3V35.534c0-.163.138-.3.301-.3h13.906c.163 0 .301.137.301.3v10.247z" fill="#000"/><path d="M39.7 37.981a1.87 1.87 0 0 0-1.867 1.867c0 .505.203.964.532 1.3v1.307a1.335 1.335 0 0 0 2.669 0v-1.306c.328-.337.532-.796.532-1.301a1.87 1.87 0 0 0-1.867-1.867z" fill="#000"/></svg>