<svg width="84" height="74" fill="none" xmlns="http://www.w3.org/2000/svg"><path d="M26.149 21.777a1.346 1.346 0 0 0-.945-.391c-.352 0-.696.143-.945.392a1.347 1.347 0 0 0-.391.944c0 .352.143.696.391.945.249.249.593.391.945.391.351 0 .696-.142.945-.391.248-.249.391-.593.391-.945 0-.351-.143-.696-.391-.945z" fill="#000"/><path d="M72.532 10.587L70.88 8.933 72.53 7.28a1.336 1.336 0 0 0-1.89-1.89l-1.65 1.651-1.628-1.63c-.25-.25-.59-.392-.945-.392l-22.616-.012h-.004a6.642 6.642 0 0 0-4.727 1.958L27.785 18.25a1.336 1.336 0 0 0 1.89 1.89L40.96 8.856a3.986 3.986 0 0 1 2.837-1.176h.003l22.062.012 1.238 1.24-4.957 4.958a5.484 5.484 0 0 0-6.684.825 5.438 5.438 0 0 0-1.604 3.87c0 1.462.57 2.837 1.604 3.87a5.457 5.457 0 0 0 3.87 1.602 5.458 5.458 0 0 0 3.871-1.601 5.484 5.484 0 0 0 .83-6.675l4.96-4.958 1.26 1.261-.013 22.033a3.988 3.988 0 0 1-1.176 2.836L36.456 69.559a3.987 3.987 0 0 1-2.838 1.176 3.987 3.987 0 0 1-2.838-1.176L8.356 47.136a3.987 3.987 0 0 1-1.175-2.838c0-1.072.417-2.08 1.175-2.838L22.76 27.056a1.336 1.336 0 0 0-1.89-1.89L6.467 39.57a6.642 6.642 0 0 0-1.959 4.728c0 1.786.696 3.465 1.959 4.727L28.89 71.45a6.666 6.666 0 0 0 4.728 1.955 6.666 6.666 0 0 0 4.727-1.955l32.607-32.607a6.643 6.643 0 0 0 1.958-4.724l.013-22.586c0-.354-.14-.694-.391-.945zm-11.22 9.979c-.53.53-1.233.82-1.982.82a2.783 2.783 0 0 1-1.98-.82 2.804 2.804 0 0 1 0-3.962 2.792 2.792 0 0 1 2.782-.703l-1.543 1.543a1.337 1.337 0 0 0 1.89 1.89l1.538-1.538a2.804 2.804 0 0 1-.706 2.77z" fill="#000"/><path d="M61.586 31.901L46.014 16.33a5.297 5.297 0 0 0-7.482 0L13.889 40.972c-1 .999-1.55 2.327-1.55 3.74 0 1.414.55 2.743 1.55 3.742l15.572 15.572c1 1 2.328 1.55 3.741 1.55 1.413 0 2.742-.55 3.741-1.55l24.643-24.643c1-1 1.55-2.328 1.55-3.74 0-1.414-.55-2.743-1.55-3.742zm-1.89 5.592L35.054 62.136a2.6 2.6 0 0 1-1.852.767 2.6 2.6 0 0 1-1.85-.767L15.778 46.564a2.601 2.601 0 0 1-.767-1.851c0-.7.272-1.357.767-1.852L40.422 18.22a2.61 2.61 0 0 1 1.85-.766c.671 0 1.342.255 1.852.766L59.696 33.79a2.6 2.6 0 0 1 .767 1.851 2.6 2.6 0 0 1-.767 1.851z" fill="#000"/><path d="M48.08 31.73a1.336 1.336 0 0 0-1.89-1.89l-.77.77c-2.054-1.27-4.69-1.1-6.357.567-.971.971-1.469 2.29-1.4 3.715.067 1.375.66 2.688 1.668 3.696 1.075 1.076 1.195 2.705.267 3.632-.927.928-2.557.808-3.632-.267-1.075-1.075-1.195-2.705-.267-3.632a1.336 1.336 0 0 0-1.89-1.89c-1.666 1.666-1.837 4.302-.568 6.357l-.913.913a1.336 1.336 0 1 0 1.89 1.89l.914-.914a5.528 5.528 0 0 0 2.897.836c1.275 0 2.521-.465 3.46-1.403 1.969-1.969 1.849-5.293-.267-7.41l-.001-.001c-.538-.538-.853-1.226-.888-1.936-.032-.662.188-1.264.62-1.696.927-.928 2.557-.808 3.632.267 1.075 1.076 1.195 2.705.268 3.632a1.336 1.336 0 0 0 1.89 1.89c1.666-1.666 1.836-4.302.567-6.357l.77-.77zM34.554 53.882l-6.863-6.863a1.337 1.337 0 0 0-1.89 1.89l6.864 6.863a1.332 1.332 0 0 0 1.89 0 1.337 1.337 0 0 0 0-1.89zM24.032 43.36a1.344 1.344 0 0 0-.945-.392c-.351 0-.695.143-.945.392a1.347 1.347 0 0 0-.391.946c0 .351.143.696.391.945.249.248.594.391.945.391.353 0 .696-.143.945-.391.25-.25.393-.594.393-.945 0-.353-.143-.696-.393-.946z" fill="#000"/></svg>