<svg width="84" height="74" fill="none" xmlns="http://www.w3.org/2000/svg"><path d="M34.178 21.401c-8.166 0-14.785 6.62-14.785 14.786s6.62 14.786 14.785 14.786c8.166 0 14.786-6.62 14.786-14.786S42.344 21.4 34.178 21.4zm10.943 9.241h-5.329c-.51-2.553-1.306-4.617-2.118-6.21 3.256.972 5.929 3.23 7.447 6.21zm-7.246 5.545c0 1.1-.083 2.11-.196 3.08h-7.001a26.11 26.11 0 0 1-.196-3.08c0-1.1.08-2.11.194-3.08h7.006c.111.97.193 1.98.193 3.08zM33.82 23.902c.121-.004.236-.037.358-.037.124 0 .239.034.362.037.925 1.419 2.05 3.663 2.73 6.74h-6.184c.684-3.088 1.813-5.33 2.734-6.74zm-3.137.53c-.81 1.59-1.607 3.656-2.117 6.21h-5.33a12.3 12.3 0 0 1 7.447-6.21zm-8.826 11.755c0-1.07.18-2.09.437-3.08h5.898c-.103.975-.174 1.99-.174 3.08s.073 2.104.178 3.08h-5.902c-.257-.99-.437-2.01-.437-3.08zm1.379 5.545h5.336c.515 2.559 1.312 4.64 2.107 6.209a12.299 12.299 0 0 1-7.443-6.21zm11.3 6.74c-.121.004-.235.036-.358.036-.122 0-.236-.032-.358-.036-.883-1.358-2.034-3.607-2.73-6.74h6.177c-.695 3.13-1.845 5.379-2.73 6.74zm3.142-.532c.796-1.569 1.593-3.649 2.107-6.208h5.336a12.301 12.301 0 0 1-7.443 6.209zm2.484-8.673c.104-.976.177-1.99.177-3.08s-.071-2.105-.174-3.08h5.897c.258.99.438 2.01.438 3.08 0 1.07-.18 2.09-.438 3.08h-5.9zM46.5 58.365H21.857v2.465H46.5v-2.465zm17.155-17.75l-1.276 4.76 2.38.638 1.277-4.76-2.38-.639zm-2.552 9.516L56.64 66.792l2.38.638 4.465-16.661-2.38-.638z" fill="#000"/><path d="M77.346 8.562L48.782.91a4.931 4.931 0 0 0-6.036 3.485l-2.576 9.614H14.464A2.464 2.464 0 0 0 12 16.473v49.285a2.464 2.464 0 0 0 2.464 2.465h28.463l17.198 4.608a4.931 4.931 0 0 0 6.036-3.485l14.67-54.748a4.929 4.929 0 0 0-3.486-6.036zM14.464 65.758V16.473H51.43a2.467 2.467 0 0 1 2.464 2.464v44.357a2.467 2.467 0 0 1-2.465 2.464H14.465zm63.987-51.797L63.78 68.708a2.467 2.467 0 0 1-3.018 1.743l-8.593-2.303c2.367-.36 4.187-2.386 4.187-4.854V43.758l1.262.338 1.276-4.76-2.38-.638-.158.589V19.703l2.515.675 2.914 9.527 2.04.547-.193-8.799 3.604.966 1.584 2.794 1.36.364-.233-3.89 2.147-3.251-1.36-.364-2.768 1.627-3.605-.966 4.567-7.523-2.04-.547-7.288 6.794-3.844-1.03c-.83-1.551-2.447-2.618-4.329-2.618H42.72l2.406-8.977a2.468 2.468 0 0 1 3.018-1.743l28.564 7.654c.636.17 1.167.578 1.496 1.148.33.57.417 1.234.247 1.87z" fill="#000"/><path d="M63.014 34.1l-.63 2.383 2.341.62.63-2.383-2.34-.62zm4.677 1.243l-.63 2.382 2.342.62.63-2.382-2.342-.62zm-9.354-2.481l-.63 2.382 2.342.62.63-2.382-2.342-.62z" fill="#000"/></svg>