<?xml version="1.0" encoding="UTF-8"?>
<svg xmlns="http://www.w3.org/2000/svg" xmlns:xlink="http://www.w3.org/1999/xlink" width="5000" height="2827" viewBox="0 0 5000 2827">
<defs>
<linearGradient id="linear-pattern-0" gradientUnits="userSpaceOnUse" x1="0.00383495" y1="0" x2="1.001203" y2="0" gradientTransform="matrix(0, 2834.46, -2834.46, 0, 2500, -10.87)">
<stop offset="0" stop-color="rgb(24.536133%, 49.508667%, 78.962708%)" stop-opacity="1"/>
<stop offset="0.0078125" stop-color="rgb(24.69635%, 49.586487%, 79.003906%)" stop-opacity="1"/>
<stop offset="0.015625" stop-color="rgb(24.975586%, 49.734497%, 79.086304%)" stop-opacity="1"/>
<stop offset="0.0234375" stop-color="rgb(25.169373%, 49.874878%, 79.167175%)" stop-opacity="1"/>
<stop offset="0.03125" stop-color="rgb(25.3479%, 50.038147%, 79.263306%)" stop-opacity="1"/>
<stop offset="0.0390625" stop-color="rgb(25.59967%, 50.268555%, 79.397583%)" stop-opacity="1"/>
<stop offset="0.046875" stop-color="rgb(25.868225%, 50.514221%, 79.53949%)" stop-opacity="1"/>
<stop offset="0.0546875" stop-color="rgb(26.062012%, 50.691223%, 79.64325%)" stop-opacity="1"/>
<stop offset="0.0625" stop-color="rgb(26.24054%, 50.831604%, 79.724121%)" stop-opacity="1"/>
<stop offset="0.0703125" stop-color="rgb(26.504517%, 50.985718%, 79.806519%)" stop-opacity="1"/>
<stop offset="0.078125" stop-color="rgb(26.797485%, 51.159668%, 79.901123%)" stop-opacity="1"/>
<stop offset="0.0859375" stop-color="rgb(26.989746%, 51.38092%, 80.032349%)" stop-opacity="1"/>
<stop offset="0.09375" stop-color="rgb(27.142334%, 51.622009%, 80.175781%)" stop-opacity="1"/>
<stop offset="0.101563" stop-color="rgb(27.394104%, 51.818848%, 80.285645%)" stop-opacity="1"/>
<stop offset="0.109375" stop-color="rgb(27.697754%, 51.979065%, 80.369568%)" stop-opacity="1"/>
<stop offset="0.117188" stop-color="rgb(27.912903%, 52.130127%, 80.451965%)" stop-opacity="1"/>
<stop offset="0.125" stop-color="rgb(28.082275%, 52.27356%, 80.532837%)" stop-opacity="1"/>
<stop offset="0.132813" stop-color="rgb(28.335571%, 52.429199%, 80.61676%)" stop-opacity="1"/>
<stop offset="0.140625" stop-color="rgb(28.645325%, 52.603149%, 80.706787%)" stop-opacity="1"/>
<stop offset="0.148438" stop-color="rgb(28.857422%, 52.822876%, 80.833435%)" stop-opacity="1"/>
<stop offset="0.15625" stop-color="rgb(28.997803%, 53.079224%, 80.982971%)" stop-opacity="1"/>
<stop offset="0.164063" stop-color="rgb(29.237366%, 53.288269%, 81.100464%)" stop-opacity="1"/>
<stop offset="0.171875" stop-color="rgb(29.556274%, 53.457642%, 81.185913%)" stop-opacity="1"/>
<stop offset="0.179688" stop-color="rgb(29.789734%, 53.613281%, 81.269836%)" stop-opacity="1"/>
<stop offset="0.1875" stop-color="rgb(29.945374%, 53.762817%, 81.352234%)" stop-opacity="1"/>
<stop offset="0.195313" stop-color="rgb(30.178833%, 53.98407%, 81.474304%)" stop-opacity="1"/>
<stop offset="0.203125" stop-color="rgb(30.484009%, 54.275513%, 81.636047%)" stop-opacity="1"/>
<stop offset="0.21875" stop-color="rgb(30.789185%, 54.568481%, 81.796265%)" stop-opacity="1"/>
<stop offset="0.226563" stop-color="rgb(31.106567%, 54.803467%, 81.921387%)" stop-opacity="1"/>
<stop offset="0.234375" stop-color="rgb(31.434631%, 54.978943%, 82.008362%)" stop-opacity="1"/>
<stop offset="0.242188" stop-color="rgb(31.681824%, 55.142212%, 82.092285%)" stop-opacity="1"/>
<stop offset="0.25" stop-color="rgb(31.842041%, 55.293274%, 82.174683%)" stop-opacity="1"/>
<stop offset="0.257813" stop-color="rgb(32.066345%, 55.509949%, 82.292175%)" stop-opacity="1"/>
<stop offset="0.265625" stop-color="rgb(32.368469%, 55.802917%, 82.450867%)" stop-opacity="1"/>
<stop offset="0.273438" stop-color="rgb(32.61261%, 56.039429%, 82.579041%)" stop-opacity="1"/>
<stop offset="0.28125" stop-color="rgb(32.780457%, 56.202698%, 82.666016%)" stop-opacity="1"/>
<stop offset="0.289062" stop-color="rgb(33.007812%, 56.365967%, 82.751465%)" stop-opacity="1"/>
<stop offset="0.296875" stop-color="rgb(33.325195%, 56.546021%, 82.83844%)" stop-opacity="1"/>
<stop offset="0.304688" stop-color="rgb(33.581543%, 56.765747%, 82.954407%)" stop-opacity="1"/>
<stop offset="0.3125" stop-color="rgb(33.738708%, 57.032776%, 83.103943%)" stop-opacity="1"/>
<stop offset="0.320312" stop-color="rgb(33.950806%, 57.275391%, 83.235168%)" stop-opacity="1"/>
<stop offset="0.328125" stop-color="rgb(34.259033%, 57.472229%, 83.332825%)" stop-opacity="1"/>
<stop offset="0.335938" stop-color="rgb(34.532166%, 57.647705%, 83.4198%)" stop-opacity="1"/>
<stop offset="0.34375" stop-color="rgb(34.715271%, 57.807922%, 83.503723%)" stop-opacity="1"/>
<stop offset="0.351562" stop-color="rgb(34.927368%, 58.016968%, 83.613586%)" stop-opacity="1"/>
<stop offset="0.359375" stop-color="rgb(35.218811%, 58.305359%, 83.764648%)" stop-opacity="1"/>
<stop offset="0.367188" stop-color="rgb(35.484314%, 58.569336%, 83.903503%)" stop-opacity="1"/>
<stop offset="0.375" stop-color="rgb(35.673523%, 58.757019%, 84.002686%)" stop-opacity="1"/>
<stop offset="0.382812" stop-color="rgb(35.88562%, 58.924866%, 84.086609%)" stop-opacity="1"/>
<stop offset="0.390625" stop-color="rgb(36.187744%, 59.109497%, 84.17511%)" stop-opacity="1"/>
<stop offset="0.398438" stop-color="rgb(36.474609%, 59.292603%, 84.263611%)" stop-opacity="1"/>
<stop offset="0.40625" stop-color="rgb(36.672974%, 59.460449%, 84.34906%)" stop-opacity="1"/>
<stop offset="0.414062" stop-color="rgb(36.875916%, 59.663391%, 84.45282%)" stop-opacity="1"/>
<stop offset="0.421875" stop-color="rgb(37.158203%, 59.947205%, 84.60083%)" stop-opacity="1"/>
<stop offset="0.429688" stop-color="rgb(37.442017%, 60.231018%, 84.745789%)" stop-opacity="1"/>
<stop offset="0.4375" stop-color="rgb(37.643433%, 60.43396%, 84.851074%)" stop-opacity="1"/>
<stop offset="0.445312" stop-color="rgb(37.846375%, 60.603333%, 84.936523%)" stop-opacity="1"/>
<stop offset="0.453125" stop-color="rgb(38.137817%, 60.792542%, 85.025024%)" stop-opacity="1"/>
<stop offset="0.460938" stop-color="rgb(38.43689%, 61.010742%, 85.13031%)" stop-opacity="1"/>
<stop offset="0.46875" stop-color="rgb(38.639832%, 61.277771%, 85.270691%)" stop-opacity="1"/>
<stop offset="0.476562" stop-color="rgb(38.822937%, 61.553955%, 85.417175%)" stop-opacity="1"/>
<stop offset="0.484375" stop-color="rgb(39.103699%, 61.782837%, 85.53009%)" stop-opacity="1"/>
<stop offset="0.492188" stop-color="rgb(39.414978%, 61.978149%, 85.620117%)" stop-opacity="1"/>
<stop offset="0.5" stop-color="rgb(39.63623%, 62.158203%, 85.708618%)" stop-opacity="1"/>
<stop offset="0.507812" stop-color="rgb(39.828491%, 62.330627%, 85.792542%)" stop-opacity="1"/>
<stop offset="0.515625" stop-color="rgb(40.109253%, 62.521362%, 85.882568%)" stop-opacity="1"/>
<stop offset="0.523437" stop-color="rgb(40.426636%, 62.738037%, 85.983276%)" stop-opacity="1"/>
<stop offset="0.53125" stop-color="rgb(40.646362%, 63.00354%, 86.11908%)" stop-opacity="1"/>
<stop offset="0.539062" stop-color="rgb(40.818787%, 63.293457%, 86.273193%)" stop-opacity="1"/>
<stop offset="0.546875" stop-color="rgb(41.087341%, 63.536072%, 86.392212%)" stop-opacity="1"/>
<stop offset="0.554687" stop-color="rgb(41.415405%, 63.74054%, 86.483765%)" stop-opacity="1"/>
<stop offset="0.5625" stop-color="rgb(41.653442%, 63.926697%, 86.572266%)" stop-opacity="1"/>
<stop offset="0.570312" stop-color="rgb(41.83197%, 64.111328%, 86.663818%)" stop-opacity="1"/>
<stop offset="0.578125" stop-color="rgb(42.094421%, 64.382935%, 86.798096%)" stop-opacity="1"/>
<stop offset="0.585937" stop-color="rgb(42.417908%, 64.717102%, 86.962891%)" stop-opacity="1"/>
<stop offset="0.59375" stop-color="rgb(42.655945%, 64.96582%, 87.084961%)" stop-opacity="1"/>
<stop offset="0.601562" stop-color="rgb(42.831421%, 65.141296%, 87.171936%)" stop-opacity="1"/>
<stop offset="0.609375" stop-color="rgb(43.095398%, 65.336609%, 87.261963%)" stop-opacity="1"/>
<stop offset="0.617187" stop-color="rgb(43.440247%, 65.548706%, 87.355042%)" stop-opacity="1"/>
<stop offset="0.625" stop-color="rgb(43.693542%, 65.742493%, 87.443542%)" stop-opacity="1"/>
<stop offset="0.632812" stop-color="rgb(43.862915%, 65.919495%, 87.530518%)" stop-opacity="1"/>
<stop offset="0.640625" stop-color="rgb(44.114685%, 66.183472%, 87.660217%)" stop-opacity="1"/>
<stop offset="0.648437" stop-color="rgb(44.451904%, 66.53595%, 87.831116%)" stop-opacity="1"/>
<stop offset="0.65625" stop-color="rgb(44.706726%, 66.804504%, 87.960815%)" stop-opacity="1"/>
<stop offset="0.664062" stop-color="rgb(44.877625%, 66.984558%, 88.047791%)" stop-opacity="1"/>
<stop offset="0.671875" stop-color="rgb(45.132446%, 67.181396%, 88.137817%)" stop-opacity="1"/>
<stop offset="0.679687" stop-color="rgb(45.477295%, 67.401123%, 88.232422%)" stop-opacity="1"/>
<stop offset="0.6875" stop-color="rgb(45.741272%, 67.6651%, 88.35907%)" stop-opacity="1"/>
<stop offset="0.695312" stop-color="rgb(45.907593%, 67.976379%, 88.519287%)" stop-opacity="1"/>
<stop offset="0.703125" stop-color="rgb(46.150208%, 68.254089%, 88.653564%)" stop-opacity="1"/>
<stop offset="0.710937" stop-color="rgb(46.488953%, 68.484497%, 88.754272%)" stop-opacity="1"/>
<stop offset="0.71875" stop-color="rgb(46.768188%, 68.690491%, 88.845825%)" stop-opacity="1"/>
<stop offset="0.726562" stop-color="rgb(46.954346%, 68.876648%, 88.9328%)" stop-opacity="1"/>
<stop offset="0.734375" stop-color="rgb(47.198486%, 69.075012%, 89.022827%)" stop-opacity="1"/>
<stop offset="0.742187" stop-color="rgb(47.531128%, 69.297791%, 89.118958%)" stop-opacity="1"/>
<stop offset="0.75" stop-color="rgb(47.813416%, 69.560242%, 89.239502%)" stop-opacity="1"/>
<stop offset="0.757812" stop-color="rgb(47.999573%, 69.871521%, 89.396667%)" stop-opacity="1"/>
<stop offset="0.765625" stop-color="rgb(48.22998%, 70.162964%, 89.537048%)" stop-opacity="1"/>
<stop offset="0.773437" stop-color="rgb(48.558044%, 70.405579%, 89.64386%)" stop-opacity="1"/>
<stop offset="0.78125" stop-color="rgb(48.852539%, 70.620728%, 89.736938%)" stop-opacity="1"/>
<stop offset="0.789062" stop-color="rgb(49.053955%, 70.814514%, 89.825439%)" stop-opacity="1"/>
<stop offset="0.796875" stop-color="rgb(49.284363%, 71.060181%, 89.941406%)" stop-opacity="1"/>
<stop offset="0.804687" stop-color="rgb(49.598694%, 71.398926%, 90.100098%)" stop-opacity="1"/>
<stop offset="0.8125" stop-color="rgb(49.894714%, 71.71936%, 90.249634%)" stop-opacity="1"/>
<stop offset="0.820312" stop-color="rgb(50.102234%, 71.94519%, 90.354919%)" stop-opacity="1"/>
<stop offset="0.828125" stop-color="rgb(50.32959%, 72.146606%, 90.444946%)" stop-opacity="1"/>
<stop offset="0.835937" stop-color="rgb(50.646973%, 72.370911%, 90.541077%)" stop-opacity="1"/>
<stop offset="0.84375" stop-color="rgb(50.958252%, 72.596741%, 90.635681%)" stop-opacity="1"/>
<stop offset="0.851562" stop-color="rgb(51.176453%, 72.798157%, 90.725708%)" stop-opacity="1"/>
<stop offset="0.859375" stop-color="rgb(51.394653%, 73.034668%, 90.835571%)" stop-opacity="1"/>
<stop offset="0.867187" stop-color="rgb(51.702881%, 73.368835%, 90.989685%)" stop-opacity="1"/>
<stop offset="0.875" stop-color="rgb(52.01416%, 73.709106%, 91.146851%)" stop-opacity="1"/>
<stop offset="0.882812" stop-color="rgb(52.238464%, 73.953247%, 91.259766%)" stop-opacity="1"/>
<stop offset="0.890625" stop-color="rgb(52.453613%, 74.157715%, 91.349792%)" stop-opacity="1"/>
<stop offset="0.898437" stop-color="rgb(52.761841%, 74.385071%, 91.445923%)" stop-opacity="1"/>
<stop offset="0.90625" stop-color="rgb(53.088379%, 74.645996%, 91.557312%)" stop-opacity="1"/>
<stop offset="0.914062" stop-color="rgb(53.315735%, 74.95575%, 91.703796%)" stop-opacity="1"/>
<stop offset="0.921875" stop-color="rgb(53.518677%, 75.280762%, 91.859436%)" stop-opacity="1"/>
<stop offset="0.929687" stop-color="rgb(53.817749%, 75.556946%, 91.981506%)" stop-opacity="1"/>
<stop offset="0.9375" stop-color="rgb(54.153442%, 75.796509%, 92.079163%)" stop-opacity="1"/>
<stop offset="0.945312" stop-color="rgb(54.396057%, 76.010132%, 92.172241%)" stop-opacity="1"/>
<stop offset="0.953125" stop-color="rgb(54.598999%, 76.213074%, 92.262268%)" stop-opacity="1"/>
<stop offset="0.960937" stop-color="rgb(54.896545%, 76.443481%, 92.358398%)" stop-opacity="1"/>
<stop offset="0.96875" stop-color="rgb(55.239868%, 76.702881%, 92.466736%)" stop-opacity="1"/>
<stop offset="0.976562" stop-color="rgb(55.487061%, 77.011108%, 92.608643%)" stop-opacity="1"/>
<stop offset="0.984375" stop-color="rgb(55.677795%, 77.349854%, 92.770386%)" stop-opacity="1"/>
<stop offset="0.992187" stop-color="rgb(55.966187%, 77.641296%, 92.89856%)" stop-opacity="1"/>
<stop offset="1" stop-color="rgb(56.306458%, 77.87323%, 92.991638%)" stop-opacity="1"/>
</linearGradient>
</defs>
<rect x="-500" y="-282.7" width="6000" height="3392.4" fill="url(#linear-pattern-0)"/>
<path fill-rule="nonzero" fill="rgb(94.561768%, 93.014526%, 97.229004%)" fill-opacity="1" d="M 4447.210938 1461.601562 C 4270.578125 1518.398438 4125.039062 1547.28125 4076.929688 1556.148438 C 4077.320312 1556.039062 3952.511719 1581.359375 3951.511719 1580.75 C 3947.519531 1581.46875 3478.539062 1665.941406 3474.550781 1666.660156 C 3424.671875 1711 3223.761719 1787.199219 3039.480469 1810.761719 C 3039.480469 1810.761719 3039.539062 1810.761719 3039.648438 1810.808594 C 3103.488281 1844.671875 3262.058594 2229.191406 2679.238281 2207.019531 C 2524.050781 2198.710938 2485.261719 2110.039062 2475.558594 2006.121094 C 2410.441406 2021.359375 2450.621094 2057.390625 2273.269531 1935.460938 C 2273.269531 1935.460938 2273.269531 1935.460938 2273.210938 1935.511719 C 2208.589844 1958.070312 2199.390625 1961.78125 2151.339844 1946.980469 C 1988.789062 1972.871094 2020.160156 2081.878906 1756.011719 2057.828125 L 1443.761719 2139.128906 C 1427.140625 2209.351562 1207.328125 2266.601562 1210.988281 2196.378906 L 714.074219 2312.769531 C 451.707031 2370.078125 390.742188 2347.910156 315.035156 2220.441406 C 278.070312 2168.671875 218.933594 2050.460938 176.480469 2009.828125 C 242.984375 1980.238281 315.035156 2165.019531 464.675781 2275.859375 C 540.382812 2314.648438 619.855469 2305.398438 841.546875 2244.441406 C 976.277344 2220.441406 2048.140625 1925.261719 2114.210938 1884.25 C 2114.320312 1884.191406 2114.371094 1884.191406 2114.371094 1884.191406 C 1944.449219 1893.449219 1595.289062 1813.96875 1368.058594 1743.808594 C 1368.058594 1743.808594 758.414062 1915.609375 715.902344 1917.441406 C 712.191406 1884.191406 1253.5 1743.808594 1318.179688 1716.101562 C 1244.238281 1645.878906 1355.089844 1594.171875 1427.140625 1559.03125 L 1042.898438 857.050781 C 1144.480469 810.828125 1166.648438 801.628906 1229.5 881.050781 C 1515.808594 1139.699219 1707.960938 1418.640625 1861.320312 1407.558594 C 1907.480469 1400.191406 1931.480469 1335.511719 2009.070312 1335.511719 L 1975.371094 1379.851562 L 2381.339844 1274.550781 C 2381.339844 1274.550781 2373.03125 1235.75 2353.628906 1217.738281 C 2374.410156 1217.738281 2374.410156 1220.511719 2417.371094 1266.230469 C 2417.371094 1266.230469 3235.789062 1060.230469 3784.46875 923.558594 C 3889.769531 804.621094 3962.148438 746.539062 3992.738281 696.988281 C 4036.859375 625.769531 3994.628906 572.179688 3839.890625 380.421875 C 3879.570312 335.140625 3935.941406 429.359375 4107.738281 574.398438 C 4126.699219 592.300781 4136.070312 609.699219 4136.949219 629.601562 C 4139.28125 679.480469 4088.238281 744.929688 4001.171875 872.621094 C 4001.109375 872.679688 4001.058594 872.730469 4001.058594 872.730469 C 4132.851562 850.898438 4235.941406 835.601562 4337.359375 852.230469 C 4422.539062 866.191406 4506.449219 902.660156 4605.160156 976.648438 C 4909.980469 1116.589844 4955.699219 1275.929688 4447.210938 1461.601562 "/>
<path fill-rule="nonzero" fill="rgb(24.36676%, 33.729553%, 63.493347%)" fill-opacity="1" d="M 3120.011719 1660.558594 C 3111.46875 1698.96875 3053.449219 1731.109375 2959.121094 1763.308594 L 2935.011719 1756.769531 C 2935.011719 1756.769531 2781.320312 1777.058594 2738.820312 1788.140625 C 2731.828125 1783.050781 2721.140625 1780.71875 2708.609375 1778.21875 C 2687.550781 1774.011719 2628.140625 1782.050781 2625.480469 1782.488281 C 2570.890625 1791.75 2518.289062 1810.640625 2516.460938 1825.328125 L 2273.269531 1935.460938 C 2273.269531 1935.460938 2273.269531 1935.460938 2273.210938 1935.511719 C 2208.589844 1958.070312 2199.390625 1961.78125 2151.339844 1946.980469 C 1995.21875 1968.710938 2018.769531 2082.769531 1756.011719 2057.828125 L 1443.761719 2139.128906 C 1433.351562 2183.140625 1343.121094 2222.039062 1278.050781 2227.699219 C 1239.371094 2231.019531 1209.609375 2222.601562 1210.988281 2196.378906 L 714.074219 2312.769531 C 602.789062 2337.101562 527.746094 2347.078125 472.433594 2340.808594 L 472.378906 2340.808594 C 444.058594 2337.601562 420.890625 2330.121094 400.71875 2318.039062 C 400.71875 2318.039062 400.71875 2318.039062 400.664062 2318.039062 C 367.355469 2298.25 342.136719 2266.101562 315.035156 2220.441406 C 278.070312 2168.671875 218.933594 2050.460938 176.480469 2009.828125 C 194.160156 2001.960938 212.28125 2009.28125 232.125 2026.398438 C 286.824219 2073.398438 354.882812 2194.5 464.675781 2275.859375 C 478.917969 2283.179688 493.273438 2288.769531 508.734375 2292.601562 C 575.355469 2309.328125 661.589844 2293.929688 841.546875 2244.441406 C 976.277344 2220.441406 2048.140625 1925.261719 2114.210938 1884.25 C 2114.320312 1884.191406 2114.371094 1884.191406 2114.371094 1884.191406 L 2332.398438 1819.511719 L 2881.078125 1636.621094 C 3057.769531 1578.320312 3091.738281 1590.671875 3109.699219 1619.550781 C 3113.410156 1625.53125 3117.019531 1631.46875 3119.398438 1639.390625 C 3121.121094 1646.761719 3121.558594 1653.628906 3120.011719 1660.558594 "/>
<path fill-rule="nonzero" fill="rgb(14.021301%, 18.513489%, 28.483582%)" fill-opacity="1" d="M 4245.378906 1039 L 4242.609375 1141.53125 C 4242.609375 1141.53125 4199.191406 1160.011719 4161.320312 1166.46875 C 4164.628906 1077.039062 4154.851562 1056.550781 4245.378906 1039 "/>
<path fill-rule="nonzero" fill="rgb(8.622742%, 8.880615%, 10.572815%)" fill-opacity="1" d="M 4262 1034.378906 L 4261.078125 1134.140625 C 4261.078125 1134.140625 4289.710938 1130.449219 4372.851562 1081.488281 L 4321.121094 1013.140625 C 4321.121094 1013.140625 4284.171875 1025.148438 4262 1034.378906 "/>
<path fill-rule="nonzero" fill="rgb(8.171082%, 8.198547%, 9.448242%)" fill-opacity="1" d="M 4336.820312 1007.128906 L 4399.628906 1075.949219 C 4399.628906 1075.949219 4540.960938 1030.230469 4541.421875 1015.449219 L 4473.070312 960.019531 L 4336.820312 1007.128906 "/>
<path fill-rule="nonzero" fill="rgb(7.8125%, 7.888794%, 8.218384%)" fill-opacity="1" d="M 3793.328125 1222.820312 C 3794.601562 1238.839844 3790.949219 1252.191406 3785.191406 1252.648438 C 3779.429688 1253.101562 3773.730469 1240.488281 3772.46875 1224.46875 C 3771.199219 1208.449219 3774.839844 1195.089844 3780.609375 1194.640625 C 3786.371094 1194.179688 3792.070312 1206.800781 3793.328125 1222.820312 "/>
<path fill-rule="nonzero" fill="rgb(7.8125%, 7.888794%, 8.218384%)" fill-opacity="1" d="M 3732.320312 1234.820312 C 3734.308594 1250.761719 3731.269531 1264.269531 3725.539062 1264.980469 C 3719.800781 1265.699219 3713.539062 1253.351562 3711.550781 1237.410156 C 3709.558594 1221.460938 3712.589844 1207.949219 3718.328125 1207.238281 C 3724.058594 1206.519531 3730.328125 1218.871094 3732.320312 1234.820312 "/>
<path fill-rule="nonzero" fill="rgb(7.8125%, 7.888794%, 8.218384%)" fill-opacity="1" d="M 3671.558594 1245.46875 C 3672.949219 1261.480469 3669.410156 1274.859375 3663.648438 1275.359375 C 3657.890625 1275.859375 3652.101562 1263.289062 3650.710938 1247.28125 C 3649.320312 1231.269531 3652.859375 1217.878906 3658.621094 1217.390625 C 3664.378906 1216.890625 3670.171875 1229.460938 3671.558594 1245.46875 "/>
<path fill-rule="nonzero" fill="rgb(7.8125%, 7.888794%, 8.218384%)" fill-opacity="1" d="M 3613.789062 1263.101562 C 3615.761719 1279.050781 3612.71875 1292.550781 3606.980469 1293.261719 C 3601.25 1293.96875 3594.988281 1281.621094 3593.019531 1265.671875 C 3591.039062 1249.71875 3594.089844 1236.21875 3599.820312 1235.511719 C 3605.558594 1234.800781 3611.808594 1247.148438 3613.789062 1263.101562 "/>
<path fill-rule="nonzero" fill="rgb(7.8125%, 7.888794%, 8.218384%)" fill-opacity="1" d="M 3557.011719 1274.949219 C 3558.519531 1290.949219 3555.078125 1304.359375 3549.328125 1304.898438 C 3543.578125 1305.441406 3537.691406 1292.910156 3536.179688 1276.921875 C 3534.671875 1260.921875 3538.109375 1247.511719 3543.859375 1246.960938 C 3549.609375 1246.421875 3555.5 1258.949219 3557.011719 1274.949219 "/>
<path fill-rule="nonzero" fill="rgb(7.8125%, 7.888794%, 8.218384%)" fill-opacity="1" d="M 3499.480469 1288.941406 C 3500.339844 1304.371094 3496.550781 1317.140625 3490.988281 1317.449219 C 3485.441406 1317.761719 3480.238281 1305.5 3479.378906 1290.070312 C 3478.511719 1274.628906 3482.308594 1261.871094 3487.859375 1261.550781 C 3493.410156 1261.238281 3498.621094 1273.5 3499.480469 1288.941406 "/>
<path fill-rule="nonzero" fill="rgb(7.8125%, 7.888794%, 8.218384%)" fill-opacity="1" d="M 3442.210938 1298.640625 C 3443.078125 1314.070312 3439.28125 1326.839844 3433.71875 1327.148438 C 3428.171875 1327.460938 3422.96875 1315.199219 3422.109375 1299.761719 C 3421.238281 1284.328125 3425.039062 1271.558594 3430.589844 1271.25 C 3436.140625 1270.941406 3441.351562 1283.199219 3442.210938 1298.640625 "/>
<path fill-rule="nonzero" fill="rgb(7.8125%, 7.888794%, 8.218384%)" fill-opacity="1" d="M 3386.789062 1314.339844 C 3387.648438 1329.78125 3383.851562 1342.539062 3378.300781 1342.851562 C 3372.75 1343.160156 3367.550781 1330.898438 3366.691406 1315.46875 C 3365.820312 1300.03125 3369.621094 1287.269531 3375.171875 1286.960938 C 3380.71875 1286.648438 3385.921875 1298.910156 3386.789062 1314.339844 "/>
<path fill-rule="nonzero" fill="rgb(7.8125%, 7.888794%, 8.218384%)" fill-opacity="1" d="M 3332.199219 1326.679688 C 3332.988281 1340.71875 3329.53125 1352.339844 3324.480469 1352.621094 C 3319.429688 1352.898438 3314.699219 1341.75 3313.921875 1327.710938 C 3313.128906 1313.671875 3316.578125 1302.058594 3321.628906 1301.78125 C 3326.679688 1301.488281 3331.421875 1312.640625 3332.199219 1326.679688 "/>
<path fill-rule="nonzero" fill="rgb(7.8125%, 7.888794%, 8.218384%)" fill-opacity="1" d="M 3275.390625 1337.769531 C 3276.179688 1351.808594 3272.71875 1363.421875 3267.671875 1363.699219 C 3262.628906 1363.988281 3257.890625 1352.828125 3257.109375 1338.789062 C 3256.320312 1324.75 3259.78125 1313.140625 3264.828125 1312.859375 C 3269.878906 1312.578125 3274.609375 1323.730469 3275.390625 1337.769531 "/>
<path fill-rule="nonzero" fill="rgb(7.8125%, 7.888794%, 8.218384%)" fill-opacity="1" d="M 3224.128906 1348.851562 C 3224.921875 1362.890625 3221.460938 1374.511719 3216.410156 1374.789062 C 3211.359375 1375.070312 3206.628906 1363.921875 3205.839844 1349.878906 C 3205.050781 1335.839844 3208.511719 1324.230469 3213.558594 1323.941406 C 3218.609375 1323.660156 3223.339844 1334.808594 3224.128906 1348.851562 "/>
<path fill-rule="nonzero" fill="rgb(7.8125%, 7.888794%, 8.218384%)" fill-opacity="1" d="M 3170.550781 1359.011719 C 3171.339844 1373.058594 3167.878906 1384.671875 3162.828125 1384.949219 C 3157.78125 1385.230469 3153.050781 1374.078125 3152.269531 1360.039062 C 3151.480469 1346 3154.941406 1334.390625 3159.988281 1334.101562 C 3165.039062 1333.820312 3169.769531 1344.96875 3170.550781 1359.011719 "/>
<path fill-rule="nonzero" fill="rgb(7.8125%, 7.888794%, 8.218384%)" fill-opacity="1" d="M 3116.488281 1372.101562 C 3117.75 1386.109375 3114.691406 1397.828125 3109.648438 1398.28125 C 3104.621094 1398.730469 3099.511719 1387.75 3098.25 1373.738281 C 3096.988281 1359.738281 3100.058594 1348.011719 3105.089844 1347.558594 C 3110.128906 1347.109375 3115.230469 1358.089844 3116.488281 1372.101562 "/>
<path fill-rule="nonzero" fill="rgb(7.8125%, 7.888794%, 8.218384%)" fill-opacity="1" d="M 3064.300781 1385.03125 C 3065.558594 1399.039062 3062.5 1410.761719 3057.460938 1411.210938 C 3052.429688 1411.660156 3047.320312 1400.679688 3046.058594 1386.671875 C 3044.800781 1372.671875 3047.871094 1360.949219 3052.898438 1360.488281 C 3057.941406 1360.039062 3063.039062 1371.03125 3064.300781 1385.03125 "/>
<path fill-rule="nonzero" fill="rgb(7.8125%, 7.888794%, 8.218384%)" fill-opacity="1" d="M 3013.960938 1396.121094 C 3015.21875 1410.121094 3012.160156 1421.839844 3007.121094 1422.300781 C 3002.089844 1422.75 2996.980469 1411.761719 2995.71875 1397.761719 C 2994.460938 1383.75 2997.519531 1372.03125 3002.558594 1371.578125 C 3007.601562 1371.121094 3012.699219 1382.109375 3013.960938 1396.121094 "/>
<path fill-rule="nonzero" fill="rgb(7.8125%, 7.888794%, 8.218384%)" fill-opacity="1" d="M 2935.449219 1411.359375 C 2936.710938 1425.359375 2933.648438 1437.078125 2928.609375 1437.539062 C 2923.570312 1437.988281 2918.46875 1427 2917.210938 1413 C 2915.949219 1398.988281 2919.011719 1387.269531 2924.050781 1386.820312 C 2929.078125 1386.371094 2934.191406 1397.351562 2935.449219 1411.359375 "/>
<path fill-rule="nonzero" fill="rgb(7.8125%, 7.888794%, 8.218384%)" fill-opacity="1" d="M 2856.46875 1427.980469 C 2857.730469 1441.988281 2854.671875 1453.710938 2849.628906 1454.160156 C 2844.589844 1454.621094 2839.488281 1443.628906 2838.230469 1429.628906 C 2836.96875 1415.621094 2840.03125 1403.898438 2845.070312 1403.449219 C 2850.109375 1402.988281 2855.210938 1413.980469 2856.46875 1427.980469 "/>
<path fill-rule="nonzero" fill="rgb(7.8125%, 7.888794%, 8.218384%)" fill-opacity="1" d="M 2799.199219 1444.609375 C 2800.460938 1458.621094 2797.398438 1470.339844 2792.359375 1470.789062 C 2787.320312 1471.238281 2782.21875 1460.261719 2780.960938 1446.25 C 2779.699219 1432.25 2782.761719 1420.519531 2787.800781 1420.070312 C 2792.839844 1419.621094 2797.941406 1430.601562 2799.199219 1444.609375 "/>
<path fill-rule="nonzero" fill="rgb(81.510925%, 79.400635%, 84.901428%)" fill-opacity="1" d="M 2334.070312 1820.398438 L 2273.550781 1835.359375 C 2252.039062 1824.78125 2210.480469 1785.871094 2188.03125 1750.398438 C 2187.308594 1749.351562 2186.871094 1748.128906 2186.808594 1746.910156 C 2186.589844 1745.578125 2186.808594 1744.191406 2187.359375 1742.859375 C 2188.421875 1740.261719 2190.578125 1738.371094 2193.289062 1737.769531 C 2193.289062 1737.769531 2326.199219 1705.949219 2326.859375 1705.949219 C 2329.410156 1705.949219 2331.910156 1707.121094 2333.511719 1709.171875 C 2333.789062 1709.558594 2334.070312 1709.941406 2334.289062 1710.390625 C 2347.808594 1735.828125 2385.328125 1772.179688 2395.75 1782.050781 Z M 2402.179688 1780.441406 C 2401.679688 1780 2354.191406 1735.988281 2339.171875 1707.78125 L 2339.171875 1707.730469 C 2336.171875 1702.179688 2329.800781 1699.300781 2323.589844 1700.800781 L 2191.960938 1732.328125 C 2187.589844 1733.390625 2183.929688 1736.550781 2182.210938 1740.761719 C 2181.210938 1743.199219 2180.941406 1745.800781 2181.320312 1748.300781 C 2181.660156 1750.070312 2182.320312 1751.789062 2183.320312 1753.390625 C 2204.550781 1786.921875 2247.71875 1829.378906 2272.101562 1840.800781 L 2272.988281 1841.238281 L 2335.839844 1825.660156 L 2404.839844 1782.929688 L 2402.179688 1780.441406 "/>
<path fill-rule="nonzero" fill="rgb(7.8125%, 7.888794%, 8.218384%)" fill-opacity="1" d="M 2750.710938 1454.308594 C 2751.96875 1468.320312 2748.910156 1480.039062 2743.871094 1480.488281 C 2738.828125 1480.941406 2733.730469 1469.960938 2732.46875 1455.949219 C 2731.210938 1441.941406 2734.269531 1430.21875 2739.308594 1429.769531 C 2744.339844 1429.320312 2749.449219 1440.300781 2750.710938 1454.308594 "/>
<path fill-rule="nonzero" fill="rgb(7.8125%, 7.888794%, 8.218384%)" fill-opacity="1" d="M 2701.519531 1464.929688 C 2702.78125 1478.941406 2699.71875 1490.660156 2694.679688 1491.109375 C 2689.640625 1491.570312 2684.539062 1480.578125 2683.28125 1466.570312 C 2682.019531 1452.570312 2685.078125 1440.851562 2690.121094 1440.390625 C 2695.160156 1439.941406 2700.261719 1450.929688 2701.519531 1464.929688 "/>
<path fill-rule="nonzero" fill="rgb(7.8125%, 7.888794%, 8.218384%)" fill-opacity="1" d="M 2606.609375 1486.410156 C 2607.871094 1500.410156 2604.808594 1512.140625 2599.769531 1512.589844 C 2594.730469 1513.039062 2589.628906 1502.058594 2588.371094 1488.050781 C 2587.109375 1474.039062 2590.171875 1462.320312 2595.210938 1461.871094 C 2600.25 1461.421875 2605.351562 1472.398438 2606.609375 1486.410156 "/>
<path fill-rule="nonzero" fill="rgb(7.8125%, 7.888794%, 8.218384%)" fill-opacity="1" d="M 2653.261719 1474.171875 C 2654.519531 1488.179688 2651.449219 1499.898438 2646.421875 1500.351562 C 2641.378906 1500.800781 2636.269531 1489.820312 2635.011719 1475.808594 C 2633.761719 1461.800781 2636.820312 1450.078125 2641.859375 1449.628906 C 2646.890625 1449.179688 2652 1460.160156 2653.261719 1474.171875 "/>
<path fill-rule="nonzero" fill="rgb(7.8125%, 7.888794%, 8.218384%)" fill-opacity="1" d="M 2559.039062 1497.261719 C 2560.300781 1511.269531 2557.238281 1522.988281 2552.199219 1523.441406 C 2547.160156 1523.890625 2542.058594 1512.910156 2540.800781 1498.898438 C 2539.539062 1484.898438 2542.601562 1473.179688 2547.640625 1472.71875 C 2552.671875 1472.269531 2557.78125 1483.261719 2559.039062 1497.261719 "/>
<path fill-rule="nonzero" fill="rgb(7.8125%, 7.888794%, 8.218384%)" fill-opacity="1" d="M 2512.390625 1507.421875 C 2513.648438 1521.429688 2510.589844 1533.148438 2505.550781 1533.601562 C 2500.511719 1534.058594 2495.410156 1523.070312 2494.148438 1509.058594 C 2492.890625 1495.058594 2495.949219 1483.339844 2500.988281 1482.878906 C 2506.03125 1482.429688 2511.128906 1493.421875 2512.390625 1507.421875 "/>
<path fill-rule="nonzero" fill="rgb(7.8125%, 7.888794%, 8.218384%)" fill-opacity="1" d="M 2466.210938 1517.578125 C 2467.46875 1531.589844 2464.398438 1543.308594 2459.371094 1543.761719 C 2454.328125 1544.21875 2449.21875 1533.230469 2447.960938 1519.21875 C 2446.710938 1505.21875 2449.769531 1493.5 2454.808594 1493.039062 C 2459.839844 1492.589844 2464.949219 1503.578125 2466.210938 1517.578125 "/>
<path fill-rule="nonzero" fill="rgb(7.8125%, 7.888794%, 8.218384%)" fill-opacity="1" d="M 2421.410156 1526.820312 C 2422.671875 1540.828125 2419.601562 1552.550781 2414.570312 1553 C 2409.53125 1553.449219 2404.421875 1542.46875 2403.171875 1528.460938 C 2401.910156 1514.460938 2404.96875 1502.730469 2410.011719 1502.28125 C 2415.039062 1501.828125 2420.148438 1512.808594 2421.410156 1526.820312 "/>
<path fill-rule="nonzero" fill="rgb(7.8125%, 7.888794%, 8.218384%)" fill-opacity="1" d="M 2374.761719 1537.898438 C 2376.019531 1551.910156 2372.960938 1563.628906 2367.921875 1564.089844 C 2362.878906 1564.539062 2357.78125 1553.550781 2356.519531 1539.550781 C 2355.261719 1525.539062 2358.320312 1513.820312 2363.359375 1513.371094 C 2368.398438 1512.910156 2373.5 1523.898438 2374.761719 1537.898438 "/>
<path fill-rule="nonzero" fill="rgb(7.8125%, 7.888794%, 8.218384%)" fill-opacity="1" d="M 2286.300781 1557.449219 C 2287.320312 1570.960938 2284.210938 1582.21875 2279.351562 1582.589844 C 2274.488281 1582.960938 2269.71875 1572.300781 2268.691406 1558.78125 C 2267.671875 1545.261719 2270.78125 1534.011719 2275.640625 1533.640625 C 2280.5 1533.269531 2285.269531 1543.929688 2286.300781 1557.449219 "/>
<path fill-rule="nonzero" fill="rgb(7.8125%, 7.888794%, 8.218384%)" fill-opacity="1" d="M 2242.351562 1567.621094 C 2243.378906 1581.128906 2240.261719 1592.390625 2235.398438 1592.761719 C 2230.539062 1593.128906 2225.769531 1582.46875 2224.75 1568.949219 C 2223.71875 1555.429688 2226.828125 1544.179688 2231.699219 1543.808594 C 2236.558594 1543.441406 2241.328125 1554.101562 2242.351562 1567.621094 "/>
<path fill-rule="nonzero" fill="rgb(7.8125%, 7.888794%, 8.218384%)" fill-opacity="1" d="M 2331.03125 1547.300781 C 2332.050781 1560.808594 2328.941406 1572.070312 2324.078125 1572.441406 C 2319.21875 1572.808594 2314.449219 1562.148438 2313.421875 1548.628906 C 2312.398438 1535.109375 2315.511719 1523.859375 2320.371094 1523.488281 C 2325.230469 1523.121094 2330 1533.78125 2331.03125 1547.300781 "/>
<path fill-rule="nonzero" fill="rgb(7.8125%, 7.888794%, 8.218384%)" fill-opacity="1" d="M 2199.46875 1575.460938 C 2200.488281 1588.980469 2197.378906 1600.230469 2192.519531 1600.601562 C 2187.660156 1600.96875 2182.890625 1590.308594 2181.859375 1576.789062 C 2180.839844 1563.28125 2183.949219 1552.019531 2188.808594 1551.648438 C 2193.671875 1551.28125 2198.449219 1561.941406 2199.46875 1575.460938 "/>
<path fill-rule="nonzero" fill="rgb(7.8125%, 7.888794%, 8.218384%)" fill-opacity="1" d="M 2156.980469 1587.011719 C 2158 1600.519531 2154.890625 1611.78125 2150.03125 1612.148438 C 2145.171875 1612.519531 2140.398438 1601.859375 2139.371094 1588.339844 C 2138.351562 1574.820312 2141.460938 1563.570312 2146.320312 1563.199219 C 2151.179688 1562.828125 2155.960938 1573.488281 2156.980469 1587.011719 "/>
<path fill-rule="nonzero" fill="rgb(7.8125%, 7.888794%, 8.218384%)" fill-opacity="1" d="M 2114.03125 1596.238281 C 2115.050781 1609.761719 2111.941406 1621.019531 2107.078125 1621.378906 C 2102.21875 1621.75 2097.449219 1611.089844 2096.421875 1597.578125 C 2095.398438 1584.058594 2098.511719 1572.800781 2103.371094 1572.441406 C 2108.230469 1572.070312 2113 1582.730469 2114.03125 1596.238281 "/>
<path fill-rule="nonzero" fill="rgb(7.8125%, 7.888794%, 8.218384%)" fill-opacity="1" d="M 2072.460938 1604.558594 C 2073.480469 1618.070312 2070.371094 1629.328125 2065.511719 1629.699219 C 2060.648438 1630.070312 2055.878906 1619.410156 2054.851562 1605.890625 C 2053.828125 1592.371094 2056.941406 1581.121094 2061.800781 1580.75 C 2066.671875 1580.378906 2071.441406 1591.039062 2072.460938 1604.558594 "/>
<path fill-rule="nonzero" fill="rgb(7.8125%, 7.888794%, 8.218384%)" fill-opacity="1" d="M 2030.429688 1613.328125 C 2031.460938 1626.851562 2028.339844 1638.101562 2023.480469 1638.46875 C 2018.621094 1638.839844 2013.851562 1628.179688 2012.828125 1614.671875 C 2011.800781 1601.148438 2014.910156 1589.890625 2019.78125 1589.519531 C 2024.640625 1589.160156 2029.410156 1599.808594 2030.429688 1613.328125 "/>
<path fill-rule="nonzero" fill="rgb(7.8125%, 7.888794%, 8.218384%)" fill-opacity="1" d="M 1988.859375 1624.421875 C 1989.890625 1637.929688 1986.78125 1649.191406 1981.921875 1649.558594 C 1977.050781 1649.929688 1972.28125 1639.269531 1971.261719 1625.75 C 1970.238281 1612.230469 1973.351562 1600.980469 1978.210938 1600.609375 C 1983.070312 1600.238281 1987.839844 1610.898438 1988.859375 1624.421875 "/>
<path fill-rule="nonzero" fill="rgb(7.8125%, 7.888794%, 8.218384%)" fill-opacity="1" d="M 1946.839844 1632.730469 C 1947.859375 1646.25 1944.75 1657.5 1939.890625 1657.871094 C 1935.03125 1658.238281 1930.25 1647.578125 1929.230469 1634.058594 C 1928.210938 1620.550781 1931.320312 1609.289062 1936.179688 1608.921875 C 1941.039062 1608.550781 1945.808594 1619.210938 1946.839844 1632.730469 "/>
<path fill-rule="nonzero" fill="rgb(7.8125%, 7.888794%, 8.218384%)" fill-opacity="1" d="M 1905.269531 1641.738281 C 1906.289062 1655.25 1903.179688 1666.511719 1898.320312 1666.878906 C 1893.460938 1667.238281 1888.691406 1656.589844 1887.660156 1643.070312 C 1886.640625 1629.550781 1889.75 1618.300781 1894.609375 1617.929688 C 1899.480469 1617.558594 1904.25 1628.21875 1905.269531 1641.738281 "/>
<path fill-rule="nonzero" fill="rgb(7.8125%, 7.888794%, 8.218384%)" fill-opacity="1" d="M 1866.46875 1649.699219 C 1867.5 1663.21875 1864.390625 1674.480469 1859.519531 1674.839844 C 1854.660156 1675.210938 1849.890625 1664.550781 1848.871094 1651.039062 C 1847.851562 1637.519531 1850.960938 1626.261719 1855.820312 1625.890625 C 1860.679688 1625.53125 1865.449219 1636.191406 1866.46875 1649.699219 "/>
<path fill-rule="nonzero" fill="rgb(7.8125%, 7.888794%, 8.218384%)" fill-opacity="1" d="M 1828.019531 1658.710938 C 1829.050781 1672.230469 1825.941406 1683.480469 1821.078125 1683.851562 C 1816.210938 1684.21875 1811.441406 1673.558594 1810.421875 1660.039062 C 1809.398438 1646.519531 1812.511719 1635.269531 1817.371094 1634.898438 C 1822.230469 1634.53125 1827 1645.191406 1828.019531 1658.710938 "/>
<path fill="none" stroke-width="10" stroke-linecap="butt" stroke-linejoin="miter" stroke="rgb(90.507507%, 87.965393%, 91.317749%)" stroke-opacity="1" stroke-miterlimit="10" d="M 17347.5 12965.898438 C 17218.203125 12577.890625 16931.796875 11183.085938 17753.90625 10333.28125 C 17596.914062 10222.5 17458.28125 10268.710938 17282.8125 10287.109375 C 16904.101562 10675.117188 16470 11700.390625 16710.117188 12698.007812 C 16802.5 12901.210938 17116.601562 13067.5 17347.5 12965.898438 Z M 17347.5 12965.898438 " transform="matrix(0.1, 0, 0, -0.1, 0, 2827)"/>
<path fill-rule="nonzero" fill="rgb(78.146362%, 78.944397%, 86.283875%)" fill-opacity="1" d="M 1861.300781 1407.558594 L 1975.371094 1379.851562 L 2009.089844 1335.511719 C 1933.628906 1335.160156 1910.429688 1397.339844 1861.300781 1407.558594 "/>
<path fill-rule="nonzero" fill="rgb(16.986084%, 21.794128%, 59.017944%)" fill-opacity="1" d="M 2114.371094 1884.191406 C 1883.480469 1893.890625 1449.808594 1769.628906 1368.058594 1743.808594 C 1339.851562 1734.328125 1318.179688 1716.101562 1318.179688 1716.101562 C 1267.359375 1665.941406 1292.300781 1620.929688 1427.140625 1559.03125 L 1261.429688 1256.148438 C 1260.871094 1255.148438 1260.589844 1254.648438 1260.589844 1254.648438 C 1378.371094 1323.929688 1565.25 1518.398438 1565.25 1518.398438 C 1439.160156 1643.101562 1774.910156 1893.890625 2114.371094 1884.191406 "/>
<path fill-rule="nonzero" fill="rgb(12.496948%, 14.355469%, 32.855225%)" fill-opacity="1" d="M 1368.039062 1743.789062 L 1553.699219 1687.441406 C 1553.699219 1687.441406 1574.488281 1769.648438 1604.511719 1808.449219 C 1548.160156 1794.589844 1419.300781 1759.949219 1368.039062 1743.789062 "/>
<path fill-rule="nonzero" fill="rgb(55.648804%, 59.698486%, 70.108032%)" fill-opacity="1" d="M 1553.699219 1687.441406 L 1579.570312 1732.699219 C 1548.160156 1762.261719 1555.980469 1791.441406 1450.671875 1724.011719 C 1450.671875 1724.011719 1541.699219 1700.371094 1553.699219 1687.441406 "/>
<path fill-rule="nonzero" fill="rgb(18.521118%, 21.673584%, 30.981445%)" fill-opacity="1" d="M 1544 1693.449219 L 1569.980469 1733.050781 C 1538.578125 1762.609375 1555.199219 1789.398438 1450.671875 1724.011719 C 1450.671875 1724.011719 1525.648438 1704.179688 1544 1693.449219 "/>
<path fill-rule="nonzero" fill="rgb(76.655579%, 80.703735%, 89.492798%)" fill-opacity="1" d="M 1318.160156 1716.078125 C 1407.761719 1693.910156 1410.53125 1696.679688 1474.730469 1630.628906 C 1496.429688 1609.851562 1559.25 1651.421875 1553.699219 1687.441406 C 1544.46875 1700.371094 1427.160156 1731.78125 1368.039062 1743.789062 C 1368.039062 1743.789062 736.6875 1920.21875 715.902344 1917.441406 C 723.523438 1880.730469 1269.429688 1739.398438 1318.160156 1716.078125 "/>
<path fill-rule="nonzero" fill="rgb(24.36676%, 33.729553%, 63.493347%)" fill-opacity="1" d="M 1553.699219 1687.441406 C 1541 1675.660156 1529.230469 1675.660156 1455.101562 1698.53125 C 1214.699219 1765.03125 715.902344 1917.441406 715.902344 1917.441406 C 747.425781 1917.789062 1319.660156 1756.71875 1368.039062 1743.789062 C 1411.890625 1734.71875 1537.261719 1704.359375 1553.699219 1687.441406 "/>
<path fill-rule="nonzero" fill="rgb(32.073975%, 57.191467%, 83.308411%)" fill-opacity="1" d="M 4355.191406 1489.890625 C 4355.191406 1489.890625 4165.941406 1542.289062 4076.929688 1556.148438 C 3951.789062 1556.921875 3827.53125 1548.171875 3706.488281 1536.96875 C 3456.640625 1513.75 3220.601562 1480.050781 3019.640625 1498.058594 C 3239.058594 1446.410156 3635.820312 1490.53125 3964.75 1503.828125 C 4117.78125 1510.039062 4251.390625 1510.640625 4355.191406 1489.890625 "/>
<path fill-rule="nonzero" fill="rgb(61.528015%, 61.662292%, 62.809753%)" fill-opacity="1" d="M 1538.230469 1666.660156 C 1511.269531 1640.898438 1511.941406 1636.890625 1493.648438 1630.011719 C 1487.519531 1627.699219 1480.621094 1628.898438 1475.710938 1633.238281 C 1462.628906 1644.800781 1437.378906 1668.039062 1434.308594 1677.738281 L 1538.230469 1666.660156 "/>
<path fill-rule="nonzero" fill="rgb(43.148804%, 74.01123%, 92.134094%)" fill-opacity="1" d="M 1108.710938 977.691406 C 1161.128906 1012.210938 1622.980469 1422.339844 1647 1490.691406 C 1597.121094 1523.019531 1583.261719 1759.488281 1997.078125 1854.628906 C 1762.460938 1834.308594 1508.441406 1631.101562 1618.359375 1498.078125 C 1598.039062 1438.039062 1210.089844 1135.070312 1189.761719 1124.910156 L 1108.710938 977.691406 "/>
<path fill="none" stroke-width="10" stroke-linecap="butt" stroke-linejoin="miter" stroke="rgb(70.570374%, 68.412781%, 75.921631%)" stroke-opacity="1" stroke-miterlimit="10" d="M 37031.601562 12014.492188 C 36485.507812 12067.304688 36224.882812 12136.992188 35320.703125 13457.1875 C 35255.390625 13552.5 35308.203125 13683.710938 35421.40625 13706.484375 L 36998.59375 14025 C 37062.5 14037.890625 37128.203125 14011.289062 37164.21875 13956.992188 C 38078.789062 12577.109375 38804.6875 12343.59375 39156.09375 12402.382812 Z M 37031.601562 12014.492188 " transform="matrix(0.1, 0, 0, -0.1, 0, 2827)"/>
<path fill-rule="nonzero" fill="rgb(70.230103%, 70.129395%, 86.749268%)" fill-opacity="1" d="M 3839.871094 380.511719 C 3858.339844 359.949219 3873.539062 372.828125 3905.800781 405.800781 C 3960.390625 461.339844 4013.871094 511.109375 4061.671875 559.25 C 4067.769531 565.390625 4064.46875 575.359375 4056.941406 579.691406 L 4000.789062 605.351562 C 3982 561.328125 3956.550781 524.089844 3839.871094 380.511719 "/>
<path fill-rule="nonzero" fill="rgb(17.053223%, 21.878052%, 59.243774%)" fill-opacity="1" d="M 3839.871094 380.398438 C 3856.179688 362.679688 3862.269531 372.320312 3897.828125 405.800781 C 3950.800781 460.679688 3997.300781 510.46875 4046.179688 555.519531 C 4052.398438 561.261719 4051.378906 571.328125 4044.078125 575.609375 L 3999.320312 601.859375 C 3976.578125 552.210938 3951.519531 519.761719 3839.871094 380.398438 "/>
<path fill-rule="nonzero" fill="rgb(17.053223%, 21.878052%, 59.243774%)" fill-opacity="1" d="M 3951.511719 1580.75 C 3951.511719 1580.75 3951.398438 1580.75 3951.121094 1580.808594 C 3478.921875 1665.878906 3478.980469 1665.878906 3474.550781 1666.660156 C 3424.671875 1711 3223.761719 1787.199219 3039.480469 1810.761719 C 3091.019531 1837.640625 3204.96875 2094.519531 2938.671875 2180.261719 C 2875.539062 2200.539062 2791.019531 2211.289062 2679.238281 2207.019531 C 2524.050781 2198.710938 2485.261719 2110.039062 2475.558594 2006.121094 C 2486.640625 1904.96875 2568.839844 1843.570312 2738.820312 1788.140625 C 2809.921875 1771.960938 2851.988281 1765.03125 2907.851562 1756.71875 C 2918.878906 1755.558594 2927.53125 1755.78125 2934.898438 1756.769531 C 2934.960938 1756.769531 2934.960938 1756.769531 2935.011719 1756.769531 L 2935.179688 1756.828125 C 2937.339844 1757.269531 2958.511719 1763.089844 2959.121094 1763.308594 C 3023.300781 1741.03125 3136.03125 1699.46875 3119.398438 1639.390625 C 3097.230469 1578.429688 3049.839844 1583.191406 2881.078125 1636.621094 C 2881.078125 1636.621094 2430.558594 1788.589844 2332.398438 1819.511719 C 2907.078125 1453.839844 3237.449219 1535.25 3644.25 1570.28125 C 3645.25 1570.328125 3646.191406 1570.390625 3647.191406 1570.5 C 3697.289062 1574.769531 3748.550781 1578.371094 3801.589844 1580.199219 C 3802.371094 1580.261719 3803.089844 1580.261719 3803.859375 1580.308594 C 3851.46875 1582.03125 3900.578125 1582.421875 3951.511719 1580.75 "/>
<path fill-rule="nonzero" fill="rgb(14.332581%, 16.349792%, 40.829468%)" fill-opacity="1" d="M 3951.121094 1580.808594 C 3478.921875 1665.878906 3478.980469 1665.878906 3474.550781 1666.660156 C 3424.671875 1711 3223.761719 1787.199219 3039.480469 1810.761719 L 2935.179688 1756.828125 L 2935.011719 1756.769531 L 3119.398438 1639.390625 C 3172.988281 1634.289062 3168.339844 1681.898438 3223.761719 1717.921875 C 3298.578125 1755.328125 3437.140625 1672.199219 3481.46875 1650.03125 C 3500.179688 1641.71875 3489.089844 1627.859375 3464.851562 1601.539062 C 3447.53125 1586.988281 3646.191406 1570.390625 3647.191406 1570.5 C 3709.871094 1575.378906 3946.910156 1581.25 3951.121094 1580.808594 "/>
<path fill-rule="nonzero" fill="rgb(14.328003%, 16.572571%, 41.355896%)" fill-opacity="1" d="M 2938.671875 2180.261719 C 2824.71875 2216.03125 2679.238281 2207.019531 2679.238281 2207.019531 C 2625.890625 2204.949219 2585.019531 2194.558594 2539.300781 2158.53125 C 2619.660156 2204.25 2796.078125 2142.828125 2831.191406 2130.359375 C 2856.238281 2153.679688 2882.570312 2177.578125 2938.671875 2180.261719 "/>
<path fill-rule="nonzero" fill="rgb(64.770508%, 71.075439%, 83.355713%)" fill-opacity="1" d="M 4447.210938 1461.601562 C 4270.578125 1518.398438 4125.039062 1547.28125 4076.929688 1556.148438 C 4077.320312 1556.039062 3952.511719 1581.359375 3951.511719 1580.75 C 3947.519531 1581.46875 3796.691406 1585.949219 3622.800781 1568.28125 C 3729.929688 1568.28125 4283.710938 1490.691406 4596.851562 1335.511719 C 4804.679688 1220.070312 4778.351562 1109.199219 4661.96875 1038.078125 C 4620.398438 1012.679688 4603.769531 1037.171875 4558.050781 1011.289062 L 4482.511719 953.761719 C 4430.859375 930.601562 4428.25 899.839844 4337.359375 852.230469 C 4422.539062 866.191406 4506.449219 902.660156 4605.160156 976.648438 C 4909.980469 1116.589844 4955.699219 1275.929688 4447.210938 1461.601562 "/>
<path fill-rule="nonzero" fill="rgb(39.093018%, 46.41571%, 76.553345%)" fill-opacity="1" d="M 2938.671875 2180.261719 C 2938.609375 2180.261719 2938.558594 2180.199219 2938.5 2180.199219 C 2845.390625 2180.199219 2768.359375 2079.78125 2768.359375 1964.441406 C 2768.359375 1849.050781 2841.960938 1756.769531 2935.011719 1756.769531 C 2935.949219 1756.890625 2958.511719 1763.089844 2959.121094 1763.308594 C 2967.101562 1765.199219 2998.96875 1779.550781 3039.480469 1810.761719 C 3091.019531 1837.640625 3204.96875 2094.519531 2938.671875 2180.261719 "/>
<path fill-rule="nonzero" fill="rgb(24.546814%, 36.906433%, 70.697021%)" fill-opacity="1" d="M 4355.191406 1489.890625 C 4355.191406 1489.890625 4165.941406 1542.289062 4076.929688 1556.148438 C 3951.789062 1556.921875 3827.53125 1548.171875 3706.488281 1536.96875 C 3843.820312 1521.621094 3928.679688 1516.699219 4052.320312 1506.398438 C 4186.890625 1508.191406 4259.089844 1507.738281 4355.191406 1489.890625 "/>
<path fill-rule="nonzero" fill="rgb(15.541077%, 23.0896%, 49.597168%)" fill-opacity="1" d="M 2953.121094 2140.058594 C 3058.421875 2165 3165.570312 1943.078125 3024.929688 1824.609375 C 3085.089844 1913.171875 3081.738281 2124.578125 2953.121094 2140.058594 "/>
<path fill-rule="nonzero" fill="rgb(10.293579%, 14.143372%, 25.512695%)" fill-opacity="1" d="M 3078.738281 1966.398438 C 3078.738281 2065.109375 3011.308594 2140.058594 2953.121094 2140.058594 C 2875.058594 2140.058594 2811.789062 2060.03125 2811.789062 1961.320312 C 2811.789062 1862.609375 2871.371094 1787.199219 2949.421875 1787.199219 C 2988.21875 1787.199219 3078.738281 1841.238281 3078.738281 1966.398438 "/>
<path fill-rule="nonzero" fill="rgb(8.712769%, 9.156799%, 12.721252%)" fill-opacity="1" d="M 2990.289062 1968.019531 C 2990.289062 2052 2947.839844 2120.660156 2908.78125 2120.660156 C 2856.378906 2120.660156 2811.789062 2038.449219 2811.789062 1958.429688 C 2811.789062 1885.578125 2851.390625 1812.140625 2899.539062 1812.140625 C 2918.011719 1812.140625 2990.289062 1890.378906 2990.289062 1968.019531 "/>
<path fill-rule="nonzero" fill="rgb(61.917114%, 70.33844%, 88.400269%)" fill-opacity="1" d="M 3137.859375 1614.011719 C 3193.28125 1622.320312 3168.800781 1542.878906 3031.628906 1559.511719 C 2943.878906 1568.980469 2809.359375 1637.910156 2783.960938 1671.621094 L 2806.359375 1663.539062 C 2884.988281 1613.308594 3101.828125 1517.710938 3137.859375 1614.011719 "/>
<path fill-rule="nonzero" fill="rgb(76.118469%, 85.902405%, 95.346069%)" fill-opacity="1" d="M 2877.371094 2165 C 2799.78125 2105.878906 2752.671875 1952.539062 2837.191406 1821.839844 C 2875.988281 1770.570312 2903.699219 1759.488281 2935.011719 1756.769531 C 2853.820312 1754.289062 2758.910156 1840.199219 2769.300781 1990.191406 C 2774.148438 2039.371094 2800.929688 2125.511719 2877.371094 2165 "/>
<path fill-rule="nonzero" fill="rgb(10.452271%, 13.388062%, 21.632385%)" fill-opacity="1" d="M 2904.621094 1978.640625 C 2904.621094 2002.871094 2887.871094 2022.519531 2867.210938 2022.519531 C 2846.550781 2022.519531 2829.800781 2002.871094 2829.800781 1978.640625 C 2829.800781 1954.410156 2846.550781 1934.761719 2867.210938 1934.761719 C 2887.871094 1934.761719 2904.621094 1954.410156 2904.621094 1978.640625 "/>
<path fill-rule="nonzero" fill="rgb(13.154602%, 18.386841%, 36.593628%)" fill-opacity="1" d="M 2904.621094 1978.640625 C 2904.621094 2002.871094 2891.230469 2022.519531 2874.71875 2022.519531 C 2858.199219 2022.519531 2844.808594 2002.871094 2844.808594 1978.640625 C 2844.808594 1954.410156 2858.199219 1934.761719 2874.71875 1934.761719 C 2891.230469 1934.761719 2904.621094 1954.410156 2904.621094 1978.640625 "/>
<path fill-rule="nonzero" fill="rgb(26.600647%, 34.761047%, 60.188293%)" fill-opacity="1" d="M 2897.699219 1969.628906 C 2897.699219 1982.640625 2890.511719 1993.191406 2881.640625 1993.191406 C 2872.78125 1993.191406 2865.589844 1982.640625 2865.589844 1969.628906 C 2865.589844 1956.621094 2872.78125 1946.078125 2881.640625 1946.078125 C 2890.511719 1946.078125 2897.699219 1956.621094 2897.699219 1969.628906 "/>
<path fill-rule="nonzero" fill="rgb(38.960266%, 50.372314%, 74.960327%)" fill-opacity="1" d="M 2891.921875 1961.609375 C 2891.921875 1966.488281 2889.21875 1970.441406 2885.898438 1970.441406 C 2882.570312 1970.441406 2879.878906 1966.488281 2879.878906 1961.609375 C 2879.878906 1956.730469 2882.570312 1952.78125 2885.898438 1952.78125 C 2889.21875 1952.78125 2891.921875 1956.730469 2891.921875 1961.609375 "/>
<path fill-rule="nonzero" fill="rgb(52.282715%, 59.806824%, 80.973816%)" fill-opacity="1" d="M 3076.261719 1879.46875 C 3080.679688 1889.230469 3083.390625 1897.53125 3082.328125 1898.019531 C 3081.261719 1898.5 3076.820312 1890.980469 3072.410156 1881.210938 C 3067.988281 1871.449219 3065.28125 1863.148438 3066.339844 1862.671875 C 3067.410156 1862.191406 3071.851562 1869.710938 3076.261719 1879.46875 "/>
<path fill-rule="nonzero" fill="rgb(76.582336%, 77.653503%, 87.057495%)" fill-opacity="1" d="M 4001.171875 872.621094 C 4001.109375 872.679688 4001.058594 872.730469 4001.058594 872.730469 C 3922.078125 888.421875 3784.46875 923.558594 3784.46875 923.558594 C 3889.769531 804.621094 3962.148438 746.539062 3992.738281 696.988281 C 4041.289062 665.070312 4097.878906 631.371094 4136.949219 629.601562 C 4139.28125 679.480469 4088.238281 744.929688 4001.171875 872.621094 "/>
<path fill-rule="nonzero" fill="rgb(42.469788%, 48.127747%, 59.848022%)" fill-opacity="1" d="M 3827.890625 912.671875 L 3932.988281 887.539062 L 4078.648438 664.898438 C 4056.019531 661.210938 4053.941406 660.28125 4013.53125 706.46875 L 3827.890625 912.671875 "/>
<path fill-rule="nonzero" fill="rgb(52.494812%, 58.009338%, 70.440674%)" fill-opacity="1" d="M 3833.058594 908.761719 L 3929.011719 884.738281 L 4073.570312 667.671875 C 4050.941406 663.980469 4054.171875 666.058594 4014.449219 709.699219 L 3833.058594 908.761719 "/>
<path fill-rule="nonzero" fill="rgb(12.260437%, 16.743469%, 33.363342%)" fill-opacity="1" d="M 4107.738281 574.398438 C 4176.328125 634.421875 4143.191406 686.960938 4010.871094 871.230469 L 4001.058594 872.730469 C 4141.460938 673.210938 4165.589844 631.648438 4107.738281 574.398438 "/>
<path fill-rule="nonzero" fill="rgb(31.866455%, 40.606689%, 61.039734%)" fill-opacity="1" d="M 2537.359375 1888.789062 C 2508.261719 1915.449219 2493.070312 1941.769531 2484.929688 1964 C 2478.71875 1980.960938 2476.609375 1995.589844 2475.558594 2006.121094 C 2412.769531 2022.75 2445.519531 2054.609375 2273.269531 1935.460938 C 2301.089844 1924.039062 2335.949219 1907.179688 2371.589844 1891 C 2444.078125 1858.238281 2516.460938 1825.328125 2516.460938 1825.328125 C 2516.460938 1837.75 2514.359375 1869.671875 2537.359375 1888.789062 "/>
<path fill-rule="nonzero" fill="rgb(28.198242%, 36.882019%, 53.907776%)" fill-opacity="1" d="M 2537.359375 1888.789062 C 2508.261719 1915.449219 2493.070312 1941.769531 2485.039062 1963.878906 L 2371.589844 1891 C 2443.960938 1858.359375 2516.460938 1825.328125 2516.460938 1825.328125 C 2516.460938 1837.75 2514.359375 1869.671875 2537.359375 1888.789062 "/>
<path fill-rule="nonzero" fill="rgb(19.654846%, 27.874756%, 53.486633%)" fill-opacity="1" d="M 3120.03125 1660.570312 C 3111.5 1698.980469 3053.449219 1731.109375 2959.121094 1763.308594 L 2935.011719 1756.769531 C 2935.011719 1756.769531 2781.320312 1777.058594 2738.820312 1788.140625 C 2731.828125 1783.050781 2721.300781 1779.828125 2708.609375 1778.21875 L 3120.03125 1660.570312 "/>
<path fill-rule="nonzero" fill="rgb(14.814758%, 22.323608%, 45.874023%)" fill-opacity="1" d="M 3120.03125 1660.570312 L 2708.609375 1778.21875 C 2676.121094 1774.039062 2625.480469 1782.488281 2625.480469 1782.488281 L 3109.699219 1619.53125 C 3113.71875 1625.488281 3116.769531 1632.25 3119.398438 1639.390625 C 3121.121094 1646.761719 3121.539062 1653.75 3120.03125 1660.570312 "/>
<path fill-rule="nonzero" fill="rgb(63.311768%, 66.729736%, 70.35675%)" fill-opacity="1" d="M 3109.699219 1619.53125 L 2625.480469 1782.488281 C 2554.308594 1795.75 2538.949219 1807.871094 2526.128906 1813.53125 C 2526.128906 1813.53125 1201.769531 2201.941406 908.035156 2253.671875 C 908.035156 2253.671875 1538 2072.628906 1719.050781 2009.808594 C 1863.140625 1967.320312 2083.679688 1902.199219 2114.390625 1884.191406 L 2332.398438 1819.511719 L 2783.960938 1671.621094 C 2938.339844 1616.78125 3078.738281 1563.671875 3109.699219 1619.53125 "/>
<path fill-rule="nonzero" fill="rgb(98.039246%, 99.328613%, 99.098206%)" fill-opacity="1" d="M 1278.050781 2227.699219 C 1239.371094 2231.019531 1209.609375 2222.601562 1210.988281 2196.378906 L 1259.039062 2182.089844 L 1278.050781 2227.699219 "/>
<path fill-rule="nonzero" fill="rgb(98.039246%, 99.328613%, 99.098206%)" fill-opacity="1" d="M 1756.011719 2057.828125 L 1811.878906 2040.761719 L 1824 2061.308594 C 1824 2061.308594 1807.199219 2062.230469 1756.011719 2057.828125 "/>
<path fill-rule="nonzero" fill="rgb(81.745911%, 83.346558%, 89.051819%)" fill-opacity="1" d="M 3109.699219 1619.53125 L 2422.910156 1831.539062 L 3049.179688 1596 C 3064.878906 1594.378906 3095.859375 1595.5 3109.699219 1619.53125 "/>
<path fill-rule="nonzero" fill="rgb(15.362549%, 17.33551%, 44.88678%)" fill-opacity="1" d="M 1318.179688 1716.101562 C 1267.359375 1665.941406 1292.300781 1620.929688 1427.140625 1559.03125 L 1261.429688 1256.148438 C 1272.679688 1275.878906 1395.179688 1480.351562 1477.039062 1542.421875 C 1373.121094 1607.539062 1276.589844 1649.570312 1318.179688 1716.101562 "/>
<path fill-rule="nonzero" fill="rgb(12.443542%, 12.234497%, 27.085876%)" fill-opacity="1" d="M 1899.75 1712.789062 L 1830.238281 1727.441406 C 1829.589844 1727.570312 1828.960938 1727.160156 1828.820312 1726.511719 L 1826.570312 1715.851562 C 1826.441406 1715.199219 1826.851562 1714.558594 1827.5 1714.429688 L 1897.011719 1699.769531 C 1897.660156 1699.640625 1898.289062 1700.050781 1898.429688 1700.699219 L 1900.679688 1711.359375 C 1900.808594 1712.011719 1900.398438 1712.648438 1899.75 1712.789062 "/>
<path fill-rule="nonzero" fill="rgb(81.510925%, 79.400635%, 84.901428%)" fill-opacity="1" d="M 1968.980469 1803.609375 C 2009.738281 1857.398438 2046.078125 1873.96875 2119.101562 1870.898438 C 2091.851562 1856.589844 2079.300781 1844.398438 2059.761719 1825.429688 C 2051.949219 1817.839844 2043.101562 1809.25 2031.710938 1798.960938 C 2023.941406 1792.480469 2006.269531 1792.941406 1992.359375 1795.570312 C 1979.71875 1797.949219 1971.359375 1801.628906 1968.980469 1803.609375 Z M 2102.558594 1876.820312 C 2037.671875 1876.820312 2002.761719 1857.890625 1963.460938 1805.488281 L 1962.898438 1804.75 L 1962.898438 1803.828125 C 1962.898438 1801.148438 1965.308594 1798.78125 1970.488281 1796.359375 C 1985 1789.570312 2021.03125 1782.851562 2035.339844 1794.769531 C 2046.890625 1805.199219 2055.78125 1813.839844 2063.621094 1821.449219 C 2084.871094 1842.078125 2097.691406 1854.539062 2130.839844 1870.609375 L 2140.289062 1875.199219 L 2129.808594 1875.871094 C 2120.160156 1876.488281 2111.101562 1876.820312 2102.558594 1876.820312 "/>
<path fill-rule="nonzero" fill="rgb(59.27124%, 61.955261%, 74.36676%)" fill-opacity="1" d="M 2054.320312 1845.339844 C 2064.609375 1853.308594 2071.050781 1862.21875 2068.699219 1865.238281 C 2066.359375 1868.269531 2056.128906 1864.261719 2045.839844 1856.300781 C 2035.550781 1848.339844 2029.109375 1839.429688 2031.449219 1836.398438 C 2033.800781 1833.378906 2044.03125 1837.378906 2054.320312 1845.339844 "/>
<path fill-rule="nonzero" fill="rgb(71.974182%, 71.281433%, 74.359131%)" fill-opacity="1" d="M 2339.171875 1707.730469 L 2333.511719 1709.171875 L 2186.808594 1746.910156 L 2181.320312 1748.300781 C 2180.941406 1745.800781 2181.210938 1743.199219 2182.210938 1740.761719 C 2183.929688 1736.550781 2187.589844 1733.390625 2191.960938 1732.328125 L 2323.589844 1700.800781 C 2329.800781 1699.300781 2336.171875 1702.179688 2339.171875 1707.730469 "/>
<path fill-rule="nonzero" fill="rgb(82.215881%, 78.164673%, 83.650208%)" fill-opacity="1" d="M 3966.488281 1001.628906 C 3948.339844 1001.628906 3918.730469 1009.089844 3896.070312 1018.851562 C 3877.339844 1026.910156 3865.871094 1035.53125 3865.378906 1041.890625 L 3865.359375 1042.128906 L 3865.261719 1042.359375 C 3859.890625 1054.910156 3853.820312 1094.640625 3859.140625 1152.710938 C 3863.640625 1201.800781 3877.890625 1279.089844 3920.171875 1368.941406 L 4031.441406 1349.199219 C 3955.339844 1221.839844 3982.199219 1012.28125 3982.488281 1010.171875 C 3982.960938 1007.789062 3982.410156 1006.109375 3980.769531 1004.78125 C 3978.078125 1002.601562 3973.03125 1001.628906 3966.488281 1001.628906 Z M 3918.449219 1372.28125 L 3917.960938 1371.25 C 3875.101562 1280.558594 3860.699219 1202.5 3856.160156 1152.980469 C 3850.820312 1094.691406 3856.949219 1054.460938 3862.421875 1041.398438 C 3863.519531 1031.089844 3883.191406 1021.140625 3894.890625 1016.101562 C 3923.410156 1003.820312 3970.589844 992.691406 3982.660156 1002.460938 C 3985.140625 1004.46875 3986.109375 1007.308594 3985.441406 1010.660156 C 3985.171875 1012.679688 3958.179688 1223.238281 4035.128906 1349.511719 L 4036.269531 1351.378906 L 3918.449219 1372.28125 "/>
<path fill="none" stroke-width="10" stroke-linecap="butt" stroke-linejoin="miter" stroke="rgb(78.114319%, 75.527954%, 78.305054%)" stroke-opacity="1" stroke-miterlimit="10" d="M 29037.8125 14639.804688 C 28994.414062 14531.210938 28942.890625 13978.59375 29228.203125 13280.117188 C 29244.414062 13240.390625 29286.796875 13218.007812 29328.789062 13225.898438 L 29599.492188 13277.109375 C 29657.382812 13288.085938 29680.117188 13346.992188 29664.882812 13403.90625 C 29515 13965.78125 29473.085938 14629.296875 29487.304688 14741.71875 C 29509.804688 14861.914062 29045.507812 14743.984375 29037.8125 14639.804688 Z M 29037.8125 14639.804688 " transform="matrix(0.1, 0, 0, -0.1, 0, 2827)"/>
<path fill="none" stroke-width="10" stroke-linecap="butt" stroke-linejoin="miter" stroke="rgb(78.114319%, 75.527954%, 78.305054%)" stroke-opacity="1" stroke-miterlimit="10" d="M 28241.015625 14399.6875 C 28197.617188 14293.90625 28146.210938 13755.703125 28431.484375 13075.390625 C 28447.695312 13036.796875 28490.117188 13014.882812 28532.1875 13022.695312 L 28802.8125 13072.5 C 28860.703125 13083.203125 28884.21875 13140.585938 28868.203125 13196.015625 C 28704.414062 13764.882812 28683.398438 14410.585938 28697.5 14520 C 28720.117188 14637.109375 28248.710938 14501.210938 28241.015625 14399.6875 Z M 28241.015625 14399.6875 " transform="matrix(0.1, 0, 0, -0.1, 0, 2827)"/>
<path fill-rule="nonzero" fill="rgb(8.081055%, 11.439514%, 21.27533%)" fill-opacity="1" d="M 4482.539062 953.789062 L 4558.050781 1011.289062 L 4605.160156 976.648438 C 4568.988281 949.378906 4535.019531 928.261719 4515.789062 917.421875 C 4515.789062 917.421875 4498.128906 943.21875 4482.539062 953.789062 "/>
<path fill-rule="nonzero" fill="rgb(43.476868%, 48.387146%, 56.509399%)" fill-opacity="1" d="M 4040.148438 1356.289062 L 3919.390625 1390.570312 C 3918.5 1390.820312 3917.570312 1390.308594 3917.320312 1389.421875 L 3913.179688 1374.808594 C 3912.921875 1373.929688 3913.441406 1373 3914.328125 1372.75 L 4035.089844 1338.46875 C 4035.980469 1338.21875 4036.910156 1338.730469 4037.160156 1339.621094 L 4041.300781 1354.230469 C 4041.558594 1355.121094 4041.039062 1356.039062 4040.148438 1356.289062 "/>
<path fill-rule="nonzero" fill="rgb(8.006287%, 7.901001%, 8.110046%)" fill-opacity="1" d="M 3898.988281 1186.328125 C 3898.988281 1193.980469 3895.371094 1200.191406 3890.910156 1200.191406 C 3886.441406 1200.191406 3882.820312 1193.980469 3882.820312 1186.328125 C 3882.820312 1178.679688 3886.441406 1172.480469 3890.910156 1172.480469 C 3895.371094 1172.480469 3898.988281 1178.679688 3898.988281 1186.328125 "/>
<path fill-rule="nonzero" fill="rgb(78.535461%, 63.546753%, 77.229309%)" fill-opacity="1" d="M 4483.910156 1236.410156 C 4483.691406 1236.410156 4483.480469 1236.449219 4483.269531 1236.539062 L 4425.398438 1260.859375 C 4425 1261.03125 4424.679688 1261.351562 4424.519531 1261.761719 C 4424.351562 1262.160156 4424.351562 1262.609375 4424.519531 1263.019531 L 4449.839844 1323.238281 C 4450.011719 1323.640625 4450.328125 1323.960938 4450.730469 1324.121094 C 4451.140625 1324.289062 4451.589844 1324.289062 4451.988281 1324.121094 L 4509.859375 1299.800781 C 4510.699219 1299.441406 4511.089844 1298.480469 4510.738281 1297.640625 L 4485.429688 1237.421875 C 4485.261719 1237.011719 4484.941406 1236.699219 4484.53125 1236.53125 C 4484.328125 1236.449219 4484.121094 1236.410156 4483.910156 1236.410156 Z M 4451.359375 1327.238281 C 4450.761719 1327.238281 4450.171875 1327.128906 4449.601562 1326.898438 C 4448.449219 1326.429688 4447.558594 1325.539062 4447.078125 1324.398438 L 4421.769531 1264.179688 C 4421.289062 1263.03125 4421.28125 1261.769531 4421.75 1260.628906 C 4422.210938 1259.480469 4423.101562 1258.578125 4424.25 1258.101562 L 4482.109375 1233.78125 C 4483.25 1233.300781 4484.519531 1233.289062 4485.660156 1233.761719 C 4486.808594 1234.230469 4487.710938 1235.121094 4488.191406 1236.261719 L 4513.5 1296.480469 C 4514.488281 1298.839844 4513.378906 1301.558594 4511.019531 1302.550781 L 4453.148438 1326.878906 C 4452.570312 1327.121094 4451.96875 1327.238281 4451.359375 1327.238281 "/>
<path fill-rule="nonzero" fill="rgb(78.535461%, 63.546753%, 77.229309%)" fill-opacity="1" d="M 4473.519531 1295.378906 C 4465.820312 1299.378906 4455.5 1294.78125 4450.46875 1285.101562 C 4445.449219 1275.421875 4447.628906 1264.328125 4455.328125 1260.328125 C 4463.039062 1256.328125 4473.359375 1260.941406 4478.378906 1270.609375 C 4483.410156 1280.289062 4481.230469 1291.378906 4473.519531 1295.378906 "/>
<path fill-rule="nonzero" fill="rgb(70.243835%, 72.332764%, 82.078552%)" fill-opacity="1" d="M 4468.578125 1285.851562 C 4465.058594 1287.679688 4460.351562 1285.578125 4458.058594 1281.160156 C 4455.769531 1276.75 4456.761719 1271.691406 4460.28125 1269.859375 C 4463.789062 1268.039062 4468.5 1270.140625 4470.789062 1274.550781 C 4473.078125 1278.96875 4472.089844 1284.03125 4468.578125 1285.851562 "/>
<path fill-rule="nonzero" fill="rgb(54.432678%, 58.305359%, 82.675171%)" fill-opacity="1" d="M 1542.351562 1608.96875 C 1425.269531 1573.640625 1451.398438 1657.878906 1350.949219 1635.710938 C 1343.558594 1632.019531 1325.089844 1649.570312 1345.640625 1649.339844 C 1466.878906 1659.730469 1436.460938 1584.339844 1546.851562 1621.75 L 1542.351562 1608.96875 "/>
<path fill-rule="nonzero" fill="rgb(52.21405%, 51.228333%, 53.439331%)" fill-opacity="1" d="M 3808.460938 1122.828125 C 3808.460938 1126.460938 3804.738281 1129.410156 3800.148438 1129.410156 C 3795.558594 1129.410156 3791.839844 1126.460938 3791.839844 1122.828125 C 3791.839844 1119.191406 3795.558594 1116.25 3800.148438 1116.25 C 3804.738281 1116.25 3808.460938 1119.191406 3808.460938 1122.828125 "/>
<path fill-rule="nonzero" fill="rgb(86.698914%, 63.011169%, 77.75116%)" fill-opacity="1" d="M 3936.398438 1144.070312 C 3936.398438 1148.03125 3932.878906 1151.230469 3928.550781 1151.230469 C 3924.210938 1151.230469 3920.691406 1148.03125 3920.691406 1144.070312 C 3920.691406 1140.121094 3924.210938 1136.910156 3928.550781 1136.910156 C 3932.878906 1136.910156 3936.398438 1140.121094 3936.398438 1144.070312 "/>
<path fill-rule="nonzero" fill="rgb(94.561768%, 93.014526%, 97.229004%)" fill-opacity="1" d="M 1668.988281 1489.171875 C 1668.988281 1489.171875 1632.101562 1486.371094 1589.789062 1511.75 C 1589.789062 1511.75 1626.621094 1470.78125 1668.988281 1489.171875 "/>
<path fill-rule="nonzero" fill="rgb(25.740051%, 26.914978%, 56.7276%)" fill-opacity="1" d="M 460.960938 2307.230469 C 460.960938 2307.230469 432.363281 2324.191406 400.71875 2318.039062 C 400.71875 2318.039062 400.71875 2318.039062 400.664062 2318.039062 C 367.355469 2298.25 342.136719 2266.101562 315.035156 2220.441406 C 278.070312 2168.671875 218.933594 2050.460938 176.480469 2009.828125 C 194.160156 2001.960938 212.28125 2009.28125 232.125 2026.398438 C 263.882812 2080.609375 380.269531 2271.089844 460.960938 2307.230469 "/>
<path fill-rule="nonzero" fill="rgb(74.005127%, 77.456665%, 82.144165%)" fill-opacity="1" d="M 508.734375 2292.601562 C 508.679688 2315.601562 492.71875 2330.621094 472.433594 2340.808594 L 472.378906 2340.808594 C 444.058594 2337.601562 420.890625 2330.121094 400.71875 2318.039062 C 433.972656 2323.578125 460.960938 2307.230469 460.960938 2307.230469 C 373.230469 2276.75 237.445312 2044.921875 231.902344 2026.460938 C 231.957031 2026.398438 232.066406 2026.398438 232.125 2026.398438 C 286.824219 2073.398438 354.882812 2194.5 464.675781 2275.859375 C 478.917969 2283.179688 493.273438 2288.769531 508.734375 2292.601562 "/>
<path fill-rule="nonzero" fill="rgb(100%, 100%, 100%)" fill-opacity="1" d="M 252.953125 2654.308594 L 964.0625 2654.308594 C 1031.589844 2637.769531 985.082031 2553.679688 938.121094 2587.230469 C 937.675781 2560.839844 902.34375 2512.539062 848.675781 2545.191406 C 859.40625 2497.328125 718.976562 2428.011719 688.117188 2526.851562 C 684.539062 2512.539062 642.496094 2511.640625 631.765625 2525.960938 C 629.527344 2512.089844 570.941406 2500.019531 553.050781 2523.71875 C 558.417969 2435.609375 396.964844 2402.519531 376.839844 2513.878906 C 356.714844 2497.78125 305.28125 2536.238281 315.121094 2565.761719 C 284.261719 2553.679688 269.054688 2567.101562 261.003906 2587.671875 C 212.257812 2574.699219 197.945312 2648.949219 252.953125 2654.308594 "/>
<path fill-rule="nonzero" fill="rgb(92.553711%, 97.60437%, 99.533081%)" fill-opacity="1" d="M 252.953125 2654.308594 L 964.0625 2654.308594 C 1006.101562 2641.339844 985.082031 2571.160156 938.121094 2598.878906 C 937.675781 2577.070312 902.34375 2537.160156 848.675781 2564.140625 C 859.40625 2524.601562 718.976562 2467.308594 688.117188 2548.988281 C 684.539062 2537.160156 642.496094 2536.421875 631.765625 2548.25 C 629.527344 2536.789062 570.941406 2526.808594 553.050781 2546.398438 C 558.417969 2473.601562 396.964844 2446.25 376.839844 2538.269531 C 356.714844 2524.96875 305.28125 2556.75 315.121094 2581.140625 C 284.261719 2571.160156 269.054688 2582.25 261.003906 2599.25 C 212.257812 2596.621094 225.671875 2652.96875 252.953125 2654.308594 "/>
<path fill-rule="nonzero" fill="rgb(75.610352%, 87.031555%, 95.944214%)" fill-opacity="1" d="M 343.304688 2654.320312 C 343.304688 2654.320312 359.84375 2649.390625 369.683594 2629.269531 C 369.683594 2629.269531 344.636719 2630.609375 333.011719 2617.640625 C 338.378906 2618.089844 392.941406 2622.558594 405.460938 2594.378906 C 410.382812 2597.960938 398.308594 2621.21875 389.808594 2625.691406 C 412.171875 2630.609375 491.332031 2635.980469 500.277344 2591.25 C 483.730469 2597.070312 443.476562 2593.941406 434.53125 2577.839844 C 459.132812 2587.671875 517.71875 2589.460938 539.1875 2573.359375 C 540.527344 2580.519531 531.136719 2588.570312 522.636719 2593.039062 C 528.003906 2604.671875 645.179688 2666.390625 679.617188 2609.140625 C 655.914062 2608.691406 646.523438 2604.21875 639.367188 2594.828125 C 649.652344 2600.199219 692.589844 2609.589844 727.921875 2592.148438 C 728.8125 2598.410156 722.554688 2606.910156 705.109375 2609.140625 C 719.421875 2618.980469 790.085938 2671.75 853.59375 2627.03125 C 845.542969 2626.578125 821.839844 2615.851562 819.605469 2605.121094 C 840.625 2613.171875 859.40625 2626.578125 890.265625 2622.558594 C 885.792969 2629.269531 882.214844 2629.710938 865.667969 2629.710938 C 863.878906 2636.871094 880.652344 2648.949219 882.886719 2654.308594 L 343.304688 2654.320312 "/>
<path fill-rule="nonzero" fill="rgb(100%, 100%, 100%)" fill-opacity="1" d="M 523.675781 2746.859375 L 1234.78125 2746.859375 C 1302.308594 2730.308594 1255.800781 2646.230469 1208.839844 2679.769531 C 1208.390625 2653.390625 1173.058594 2605.078125 1119.390625 2637.730469 C 1130.128906 2589.878906 989.695312 2520.558594 958.835938 2619.398438 C 955.257812 2605.078125 913.21875 2604.191406 902.484375 2618.5 C 900.246094 2604.640625 841.660156 2592.558594 823.769531 2616.261719 C 829.136719 2528.160156 667.683594 2495.058594 647.558594 2606.429688 C 627.433594 2590.320312 576 2628.789062 585.839844 2658.308594 C 554.980469 2646.230469 539.773438 2659.648438 531.726562 2680.21875 C 482.976562 2667.25 468.664062 2741.488281 523.675781 2746.859375 "/>
<path fill-rule="nonzero" fill="rgb(92.553711%, 97.60437%, 99.533081%)" fill-opacity="1" d="M 523.675781 2746.859375 L 1234.78125 2746.859375 C 1276.820312 2733.890625 1255.800781 2663.710938 1208.839844 2691.421875 C 1208.390625 2669.621094 1173.058594 2629.710938 1119.390625 2656.679688 C 1130.128906 2617.140625 989.695312 2559.859375 958.835938 2641.53125 C 955.257812 2629.710938 913.21875 2628.96875 902.484375 2640.789062 C 900.246094 2629.339844 841.660156 2619.359375 823.769531 2638.941406 C 829.136719 2566.140625 667.683594 2538.789062 647.558594 2630.808594 C 627.433594 2617.511719 576 2649.289062 585.839844 2673.679688 C 554.980469 2663.710938 539.773438 2674.789062 531.726562 2691.789062 C 482.976562 2689.160156 496.394531 2745.519531 523.675781 2746.859375 "/>
<path fill-rule="nonzero" fill="rgb(75.610352%, 87.031555%, 95.944214%)" fill-opacity="1" d="M 614.023438 2746.859375 C 614.023438 2746.859375 630.5625 2741.941406 640.402344 2721.808594 C 640.402344 2721.808594 615.359375 2723.148438 603.730469 2710.179688 C 609.097656 2710.628906 663.660156 2715.101562 676.183594 2686.929688 C 681.101562 2690.511719 669.027344 2713.761719 660.527344 2718.230469 C 682.890625 2723.148438 762.050781 2728.519531 770.996094 2683.800781 C 754.449219 2689.609375 714.199219 2686.480469 705.253906 2670.378906 C 729.851562 2680.21875 788.4375 2682.011719 809.90625 2665.910156 C 811.246094 2673.058594 801.855469 2681.109375 793.359375 2685.589844 C 798.726562 2697.210938 915.902344 2758.929688 950.339844 2701.691406 C 926.636719 2701.238281 917.242188 2696.769531 910.085938 2687.378906 C 920.375 2692.738281 963.308594 2702.128906 998.640625 2684.691406 C 999.535156 2690.949219 993.273438 2699.449219 975.832031 2701.691406 C 990.144531 2711.53125 1060.808594 2764.300781 1124.308594 2719.578125 C 1116.261719 2719.128906 1092.558594 2708.398438 1090.320312 2697.660156 C 1111.339844 2705.710938 1130.128906 2719.128906 1160.988281 2715.101562 C 1156.511719 2721.808594 1152.941406 2722.261719 1136.390625 2722.261719 C 1134.601562 2729.417969 1151.371094 2741.488281 1153.609375 2746.859375 L 614.023438 2746.859375 "/>
<path fill-rule="nonzero" fill="rgb(100%, 100%, 100%)" fill-opacity="1" d="M 1968.558594 686.171875 L 2868.761719 686.171875 C 2954.25 665.21875 2895.371094 558.78125 2835.921875 601.25 C 2835.359375 567.839844 2790.628906 506.699219 2722.691406 548.03125 C 2736.28125 487.449219 2558.5 399.691406 2519.441406 524.808594 C 2514.910156 506.699219 2461.691406 505.558594 2448.101562 523.679688 C 2445.269531 506.128906 2371.101562 490.839844 2348.460938 520.851562 C 2355.25 409.320312 2150.871094 367.421875 2125.390625 508.398438 C 2099.910156 488.011719 2034.800781 536.699219 2047.261719 574.070312 C 2008.191406 558.78125 1988.941406 575.769531 1978.75 601.808594 C 1917.039062 585.390625 1898.921875 679.378906 1968.558594 686.171875 "/>
<path fill-rule="nonzero" fill="rgb(92.553711%, 97.60437%, 99.533081%)" fill-opacity="1" d="M 1968.558594 686.171875 L 2868.761719 686.171875 C 2921.980469 669.75 2895.371094 580.910156 2835.921875 616 C 2835.359375 588.390625 2790.628906 537.871094 2722.691406 572.019531 C 2736.28125 521.960938 2558.5 449.449219 2519.441406 552.839844 C 2514.910156 537.871094 2461.691406 536.929688 2448.101562 551.898438 C 2445.269531 537.398438 2371.101562 524.769531 2348.460938 549.558594 C 2355.25 457.398438 2150.871094 422.78125 2125.390625 539.269531 C 2099.910156 522.429688 2034.800781 562.660156 2047.261719 593.539062 C 2008.191406 580.910156 1988.941406 594.941406 1978.75 616.460938 C 1917.039062 613.140625 1934.03125 684.46875 1968.558594 686.171875 "/>
<path fill-rule="nonzero" fill="rgb(75.610352%, 87.031555%, 95.944214%)" fill-opacity="1" d="M 2082.941406 686.179688 C 2082.941406 686.179688 2103.878906 679.941406 2116.328125 654.46875 C 2116.328125 654.46875 2084.628906 656.160156 2069.910156 639.75 C 2076.699219 640.308594 2145.769531 645.96875 2161.621094 610.308594 C 2167.851562 614.828125 2152.570312 644.269531 2141.808594 649.941406 C 2170.121094 656.160156 2270.328125 662.960938 2281.648438 606.339844 C 2260.699219 613.699219 2209.75 609.738281 2198.421875 589.359375 C 2229.558594 601.808594 2303.730469 604.078125 2330.910156 583.691406 C 2332.601562 592.75 2320.71875 602.941406 2309.960938 608.609375 C 2316.75 623.328125 2465.089844 701.460938 2508.679688 628.988281 C 2478.671875 628.421875 2466.789062 622.761719 2457.730469 610.871094 C 2470.75 617.660156 2525.101562 629.558594 2569.828125 607.46875 C 2570.960938 615.398438 2563.03125 626.160156 2540.949219 628.988281 C 2559.070312 641.441406 2648.519531 708.25 2728.921875 651.628906 C 2718.730469 651.070312 2688.71875 637.480469 2685.890625 623.890625 C 2712.5 634.078125 2736.28125 651.070312 2775.339844 645.96875 C 2769.679688 654.46875 2765.148438 655.03125 2744.210938 655.03125 C 2741.941406 664.089844 2763.171875 679.378906 2766 686.171875 L 2082.941406 686.179688 "/>
<path fill-rule="nonzero" fill="rgb(100%, 100%, 100%)" fill-opacity="1" d="M 126.035156 1409.128906 L 625.027344 1409.128906 C 672.417969 1397.519531 639.777344 1338.519531 606.824219 1362.058594 C 606.511719 1343.539062 581.71875 1309.648438 544.058594 1332.558594 C 551.59375 1298.980469 453.046875 1250.328125 431.394531 1319.691406 C 428.882812 1309.648438 399.382812 1309.019531 391.851562 1319.058594 C 390.28125 1309.328125 349.171875 1300.859375 336.617188 1317.488281 C 340.382812 1255.671875 227.089844 1232.449219 212.96875 1310.589844 C 198.84375 1299.289062 162.753906 1326.28125 169.65625 1346.988281 C 148.003906 1338.519531 137.332031 1347.941406 131.683594 1362.371094 C 97.476562 1353.269531 87.433594 1405.371094 126.035156 1409.128906 "/>
<path fill-rule="nonzero" fill="rgb(92.553711%, 97.60437%, 99.533081%)" fill-opacity="1" d="M 126.035156 1409.128906 L 625.027344 1409.128906 C 654.527344 1400.03125 639.777344 1350.78125 606.824219 1370.230469 C 606.511719 1354.929688 581.71875 1326.929688 544.058594 1345.859375 C 551.59375 1318.109375 453.046875 1277.910156 431.394531 1335.21875 C 428.882812 1326.929688 399.382812 1326.410156 391.851562 1334.710938 C 390.28125 1326.671875 349.171875 1319.660156 336.617188 1333.410156 C 340.382812 1282.320312 227.089844 1263.128906 212.96875 1327.699219 C 198.84375 1318.371094 162.753906 1340.671875 169.65625 1357.789062 C 148.003906 1350.78125 137.332031 1358.558594 131.683594 1370.488281 C 97.476562 1368.648438 106.890625 1408.191406 126.035156 1409.128906 "/>
<path fill-rule="nonzero" fill="rgb(75.610352%, 87.031555%, 95.944214%)" fill-opacity="1" d="M 189.433594 1409.140625 C 189.433594 1409.140625 201.042969 1405.679688 207.945312 1391.558594 C 207.945312 1391.558594 190.371094 1392.5 182.210938 1383.398438 C 185.976562 1383.710938 224.265625 1386.851562 233.050781 1367.078125 C 236.503906 1369.589844 228.03125 1385.910156 222.066406 1389.050781 C 237.761719 1392.5 293.308594 1396.269531 299.585938 1364.878906 C 287.972656 1368.960938 259.726562 1366.769531 253.449219 1355.46875 C 270.710938 1362.371094 311.824219 1363.628906 326.886719 1352.328125 C 327.828125 1357.351562 321.238281 1363 315.277344 1366.140625 C 319.042969 1374.300781 401.265625 1417.609375 425.429688 1377.441406 C 408.796875 1377.121094 402.207031 1373.980469 397.1875 1367.390625 C 404.402344 1371.160156 434.53125 1377.75 459.324219 1365.511719 C 459.953125 1369.898438 455.558594 1375.871094 443.320312 1377.441406 C 453.363281 1384.339844 502.949219 1421.371094 547.511719 1389.988281 C 541.863281 1389.679688 525.230469 1382.140625 523.660156 1374.609375 C 538.410156 1380.261719 551.59375 1389.679688 573.246094 1386.851562 C 570.109375 1391.558594 567.597656 1391.871094 555.984375 1391.871094 C 554.730469 1396.890625 566.5 1405.371094 568.066406 1409.128906 L 189.433594 1409.140625 "/>
<path fill-rule="nonzero" fill="rgb(100%, 100%, 100%)" fill-opacity="1" d="M 3600.351562 2376.550781 L 4867.019531 2376.550781 C 4987.308594 2347.078125 4904.460938 2197.308594 4820.808594 2257.058594 C 4820.011719 2210.058594 4757.078125 2124.019531 4661.480469 2182.171875 C 4680.601562 2096.929688 4430.449219 1973.449219 4375.488281 2149.511719 C 4369.109375 2124.019531 4294.230469 2122.421875 4275.109375 2147.921875 C 4271.121094 2123.21875 4166.761719 2101.710938 4134.898438 2143.929688 C 4144.460938 1986.988281 3856.871094 1928.039062 3821.019531 2126.410156 C 3785.171875 2097.730469 3693.558594 2166.238281 3711.078125 2218.820312 C 3656.109375 2197.308594 3629.03125 2221.210938 3614.691406 2257.851562 C 3527.851562 2234.75 3502.359375 2366.988281 3600.351562 2376.550781 "/>
<path fill-rule="nonzero" fill="rgb(92.553711%, 97.60437%, 99.533081%)" fill-opacity="1" d="M 3600.351562 2376.550781 L 4867.019531 2376.550781 C 4941.898438 2353.449219 4904.460938 2228.441406 4820.808594 2277.808594 C 4820.011719 2238.96875 4757.078125 2167.878906 4661.480469 2215.929688 C 4680.601562 2145.488281 4430.449219 2043.460938 4375.488281 2188.941406 C 4369.109375 2167.878906 4294.230469 2166.558594 4275.109375 2187.621094 C 4271.121094 2167.21875 4166.761719 2149.441406 4134.898438 2184.328125 C 4144.460938 2054.648438 3856.871094 2005.941406 3821.019531 2169.851562 C 3785.171875 2146.148438 3693.558594 2202.769531 3711.078125 2246.210938 C 3656.109375 2228.441406 3629.03125 2248.191406 3614.691406 2278.46875 C 3527.851562 2273.789062 3551.75 2374.160156 3600.351562 2376.550781 "/>
<path fill-rule="nonzero" fill="rgb(75.610352%, 87.031555%, 95.944214%)" fill-opacity="1" d="M 3761.28125 2376.558594 C 3761.28125 2376.558594 3790.75 2367.789062 3808.269531 2331.941406 C 3808.269531 2331.941406 3763.660156 2334.328125 3742.949219 2311.230469 C 3752.511719 2312.019531 3849.699219 2319.988281 3872 2269.800781 C 3880.769531 2276.179688 3859.261719 2317.601562 3844.121094 2325.570312 C 3883.960938 2334.328125 4024.960938 2343.890625 4040.890625 2264.230469 C 4011.421875 2274.578125 3939.71875 2269.011719 3923.789062 2240.328125 C 3967.601562 2257.851562 4071.960938 2261.039062 4110.199219 2232.359375 C 4112.589844 2245.109375 4095.859375 2259.449219 4080.730469 2267.410156 C 4090.289062 2288.128906 4299.011719 2398.058594 4360.351562 2296.089844 C 4318.128906 2295.300781 4301.398438 2287.328125 4288.648438 2270.601562 C 4306.96875 2280.160156 4383.449219 2296.890625 4446.390625 2265.820312 C 4447.980469 2276.96875 4436.828125 2292.109375 4405.761719 2296.089844 C 4431.25 2313.621094 4557.121094 2407.621094 4670.238281 2327.960938 C 4655.898438 2327.160156 4613.679688 2308.039062 4609.699219 2288.921875 C 4647.140625 2303.261719 4680.601562 2327.160156 4735.570312 2319.988281 C 4727.601562 2331.941406 4721.230469 2332.738281 4691.75 2332.738281 C 4688.570312 2345.480469 4718.441406 2366.988281 4722.421875 2376.550781 L 3761.28125 2376.558594 "/>
</svg>
